<?xml version="1.0" encoding="UTF-8" standalone="no"?>
<!DOCTYPE svg PUBLIC "-//W3C//DTD SVG 20010904//EN"
              "http://www.w3.org/TR/2001/REC-SVG-20010904/DTD/svg10.dtd">

<svg xmlns="http://www.w3.org/2000/svg"
     width="10.6117in" height="1.36118in"
     viewBox="0 0 1528 196">
  <path id="Selection"
        fill="none" stroke="black" stroke-width="1"
        d="M 396.30,29.01
           C 399.57,38.44 392.92,54.69 390.02,64.00
             390.02,64.00 366.67,140.00 366.67,140.00
             365.46,143.63 363.43,148.22 364.75,152.00
             366.05,155.73 370.10,158.40 369.26,161.89
             368.01,167.03 356.20,166.99 352.00,167.00
             352.00,167.00 318.00,167.00 318.00,167.00
             313.92,166.99 301.40,167.30 303.66,160.09
             305.10,155.46 311.03,155.84 314.93,146.00
             314.93,146.00 339.58,66.00 339.58,66.00
             340.67,62.26 346.31,45.05 345.99,42.58
             345.28,36.95 337.13,35.11 340.19,29.10
             343.68,22.26 360.03,20.48 367.00,19.42
             376.25,18.29 392.57,18.25 396.30,29.01 Z
           M 469.30,29.01
           C 472.57,38.44 465.92,54.69 463.02,64.00
             463.02,64.00 439.67,140.00 439.67,140.00
             438.46,143.63 436.43,148.22 437.75,152.00
             439.05,155.73 443.10,158.40 442.26,161.89
             441.01,167.03 429.20,166.99 425.00,167.00
             425.00,167.00 391.00,167.00 391.00,167.00
             386.92,166.99 374.40,167.30 376.66,160.09
             378.10,155.46 384.03,155.84 387.93,146.00
             387.93,146.00 412.58,66.00 412.58,66.00
             413.67,62.26 419.31,45.05 418.99,42.58
             418.28,36.95 410.13,35.11 413.19,29.10
             416.68,22.26 433.03,20.48 440.00,19.42
             449.25,18.29 465.57,18.25 469.30,29.01 Z
           M 816.86,50.00
           C 817.49,47.79 818.76,44.21 818.22,42.00
             817.14,37.63 808.27,32.44 814.31,26.80
             816.84,24.44 823.56,22.36 827.00,21.48
             841.18,17.85 871.28,14.51 869.91,37.00
             869.91,37.00 859.28,75.00 859.28,75.00
             857.68,80.32 855.53,84.34 856.00,90.00
             857.89,84.09 860.65,81.31 865.00,77.01
             879.10,63.11 895.97,59.91 915.00,60.00
             927.11,60.06 944.29,62.76 952.81,72.04
             963.23,83.39 960.25,102.59 948.00,111.36
             939.83,117.21 923.96,119.98 914.00,120.00
             914.00,120.00 905.00,120.00 905.00,120.00
             905.00,120.00 892.00,119.00 892.00,119.00
             892.46,139.47 911.75,140.09 927.00,135.88
             930.85,134.60 943.47,128.78 943.56,135.88
             943.69,147.96 931.65,157.61 922.00,162.22
             900.98,172.25 863.17,167.76 852.00,145.00
             848.08,152.54 847.60,155.79 840.00,161.21
             826.69,170.71 801.37,169.45 793.00,154.00
             793.00,154.00 791.00,154.00 791.00,154.00
             782.69,171.20 747.62,173.26 735.38,149.00
             730.42,139.19 730.96,131.38 731.93,121.00
             735.04,87.37 757.37,54.42 795.00,61.08
             801.56,62.24 805.59,64.13 811.00,68.00
             811.00,68.00 816.86,50.00 816.86,50.00 Z
           M 1324.53,42.01
           C 1323.56,37.79 1319.63,36.33 1318.65,32.96
             1316.76,26.47 1327.39,23.07 1332.00,21.90
             1343.61,18.94 1370.95,14.36 1375.43,30.00
             1377.35,36.70 1374.99,44.62 1373.02,51.00
             1370.69,58.60 1362.30,83.89 1362.00,90.00
             1373.33,66.77 1397.05,59.96 1421.00,60.00
             1440.19,60.03 1463.91,64.77 1465.49,88.00
             1467.19,113.14 1439.84,119.97 1420.00,120.00
             1420.00,120.00 1411.00,120.00 1411.00,120.00
             1408.52,120.00 1401.23,119.13 1399.65,120.69
             1398.12,122.26 1398.91,125.20 1399.65,127.00
             1401.75,132.43 1406.54,135.58 1412.00,137.07
             1426.75,141.12 1436.65,132.30 1450.00,132.00
             1449.99,135.18 1450.11,137.89 1449.21,141.00
             1441.42,168.11 1398.89,172.15 1377.00,162.10
             1365.83,156.97 1364.55,152.31 1357.00,145.00
             1354.35,169.82 1310.03,175.15 1300.00,154.00
             1288.26,162.40 1286.30,167.36 1270.00,166.99
             1250.84,166.54 1238.22,150.33 1238.00,132.00
             1237.65,101.66 1251.49,66.34 1285.00,60.88
             1292.15,59.56 1293.98,59.96 1301.00,60.88
             1308.73,62.15 1311.53,64.06 1318.00,68.00
             1319.23,62.62 1325.46,46.04 1324.53,42.01 Z
           M 156.62,150.99
           C 153.67,154.59 149.14,157.89 145.00,160.02
             135.01,165.15 126.68,165.15 116.00,166.17
             116.00,166.17 107.00,167.00 107.00,167.00
             107.00,167.00 32.00,167.00 32.00,167.00
             26.32,166.99 22.25,167.92 22.02,160.98
             21.96,159.33 21.98,156.69 22.60,155.17
             24.01,151.68 27.78,150.51 30.52,144.00
             30.52,144.00 47.15,86.00 47.15,86.00
             47.15,86.00 55.81,54.00 55.81,54.00
             56.36,46.93 52.09,44.60 52.36,40.02
             52.73,33.65 59.37,34.01 64.00,34.00
             64.00,34.00 120.00,34.00 120.00,34.00
             134.49,34.00 145.11,32.59 159.00,37.70
             173.02,42.85 179.17,52.45 179.00,67.00
             178.90,74.85 176.17,82.14 170.82,87.96
             162.52,96.98 155.47,96.40 146.00,101.00
             170.01,107.85 169.39,135.43 156.62,150.99 Z
           M 126.82,71.00
           C 127.92,66.89 128.80,61.17 126.82,57.09
             123.67,49.59 109.36,49.99 106.85,52.60
             105.24,54.27 102.69,65.08 101.86,68.00
             101.86,68.00 96.00,88.00 96.00,88.00
             111.41,92.38 122.01,86.03 126.82,71.00 Z
           M 621.00,151.22
           C 628.04,149.63 633.44,142.94 628.20,136.18
             621.89,128.04 601.20,122.25 592.17,113.82
             579.94,102.69 580.96,83.64 592.17,72.30
             596.06,68.54 602.98,64.89 608.00,63.09
             620.87,58.47 634.66,58.94 648.00,59.91
             659.36,60.74 671.34,62.51 680.99,69.10
             690.53,75.63 692.22,88.59 682.00,95.28
             677.63,98.13 672.02,98.05 667.00,98.00
             653.88,97.85 642.52,90.49 646.00,76.00
             640.04,74.55 632.77,74.13 629.02,80.10
             627.58,82.40 627.39,84.52 628.50,87.00
             630.70,91.91 637.43,95.59 642.00,98.14
             654.05,104.84 666.20,107.21 675.89,118.00
             685.10,128.24 681.41,144.89 671.91,153.70
             661.69,163.17 644.60,166.98 631.00,167.00
             613.66,167.03 588.13,167.26 574.09,155.47
             561.35,144.78 565.48,121.55 587.00,123.18
             596.20,123.88 605.39,128.67 608.20,138.00
             609.29,141.61 609.00,147.12 609.00,151.22
             612.96,151.32 617.07,152.46 621.00,151.22 Z
           M 532.00,164.00
           C 511.40,170.95 480.69,167.25 467.75,148.00
             461.41,138.56 460.92,127.89 461.93,117.00
             463.14,103.92 467.35,90.00 476.18,80.00
             490.32,64.00 509.57,59.76 530.00,60.00
             536.88,60.08 550.82,62.10 557.00,64.90
             577.50,74.20 578.18,100.34 561.99,111.53
             546.87,121.98 523.39,120.41 506.00,119.00
             506.15,122.06 506.29,124.09 507.48,127.00
             509.44,131.77 512.29,134.16 517.00,136.07
             532.67,142.42 543.95,132.32 558.00,132.00
             557.85,148.17 546.73,159.02 532.00,164.00 Z
           M 1094.20,140.00
           C 1089.79,154.63 1071.18,164.33 1057.00,166.78
             1053.17,167.17 1047.96,167.04 1044.00,166.78
             1017.25,166.68 998.40,149.14 999.01,122.00
             999.13,117.02 1000.39,110.85 1001.63,106.00
             1010.25,72.30 1038.64,59.63 1071.00,60.00
             1088.11,60.20 1108.54,67.90 1107.98,88.00
             1107.48,106.17 1083.87,108.69 1074.19,100.44
             1067.62,94.85 1069.00,85.71 1069.00,78.00
             1061.30,81.65 1055.78,84.78 1050.64,92.00
             1041.89,104.27 1040.30,127.01 1056.00,134.60
             1070.45,141.58 1082.09,133.03 1095.00,130.00
             1095.00,133.33 1095.17,136.78 1094.20,140.00 Z
           M 227.00,163.54
           C 208.77,171.22 180.57,167.45 177.30,144.00
             176.43,137.79 178.92,129.98 180.72,124.00
             180.72,124.00 190.58,92.00 190.58,92.00
             191.34,89.36 192.68,85.69 191.64,83.04
             190.04,78.95 182.82,76.27 187.52,70.13
             192.82,63.22 213.59,60.91 222.00,61.00
             225.33,61.04 227.74,61.23 231.00,62.04
             252.04,67.26 241.13,91.26 236.67,105.00
             236.67,105.00 233.84,115.00 233.84,115.00
             231.92,120.56 225.23,134.84 233.84,137.08
             238.46,138.21 242.78,133.33 244.86,130.00
             247.24,126.18 253.01,105.71 254.72,100.00
             255.78,96.46 259.24,87.24 258.31,84.00
             257.17,80.02 252.04,77.43 252.58,73.02
             253.08,68.91 257.63,66.94 261.00,65.70
             269.63,62.51 279.81,60.90 289.00,61.00
             292.28,61.04 294.79,61.24 298.00,62.04
             319.37,67.41 306.65,94.21 302.34,108.00
             302.34,108.00 299.00,119.00 299.00,119.00
             299.00,119.00 293.45,137.00 293.45,137.00
             292.94,139.12 292.32,142.68 295.17,143.47
             296.79,143.92 300.80,141.59 303.00,141.00
             305.57,152.00 297.60,160.73 288.00,164.96
             280.37,168.32 276.06,168.09 268.00,168.00
             256.31,167.86 248.07,163.34 244.00,152.00
             238.36,155.91 233.41,160.84 227.00,163.54 Z
           M 1222.91,73.18
           C 1242.68,92.01 1232.62,125.69 1217.54,144.00
             1206.25,157.71 1183.77,167.92 1166.00,168.00
             1166.00,168.00 1152.00,168.00 1152.00,168.00
             1145.57,167.92 1137.06,166.29 1131.00,164.13
             1101.47,153.63 1101.38,120.54 1114.31,97.00
             1126.46,74.88 1148.16,65.02 1172.00,61.42
             1187.23,59.56 1211.38,62.21 1222.91,73.18 Z
           M 526.48,91.00
           C 527.24,87.45 528.71,75.65 521.98,77.66
             516.92,79.17 512.78,88.31 511.09,93.00
             511.09,93.00 507.00,107.00 507.00,107.00
             518.60,106.96 523.97,102.74 526.48,91.00 Z
           M 901.99,105.99
           C 909.69,102.79 913.41,90.73 912.96,83.00
             912.62,77.15 908.98,75.31 904.52,79.43
             900.82,82.84 898.25,89.30 896.67,94.00
             896.67,94.00 893.00,107.00 893.00,107.00
             895.98,106.99 899.18,107.16 901.99,105.99 Z
           M 1407.00,106.79
           C 1413.92,104.68 1417.58,96.41 1418.98,90.00
             1419.73,86.60 1421.25,79.20 1416.77,77.66
             1412.19,76.07 1408.07,82.68 1406.37,86.00
             1406.37,86.00 1403.05,94.00 1403.05,94.00
             1401.37,98.64 1400.42,102.06 1400.00,106.79
             1402.00,106.99 1405.13,107.08 1407.00,106.79 Z
           M 785.87,91.00
           C 780.33,100.71 776.05,115.81 776.00,127.00
             775.98,132.14 775.48,139.26 782.01,140.67
             788.14,141.98 790.70,135.67 792.25,131.00
             792.25,131.00 802.67,97.00 802.67,97.00
             803.59,94.17 806.97,84.70 806.22,82.23
             805.08,78.47 799.94,79.02 797.00,79.51
             791.20,81.98 788.91,85.67 785.87,91.00 Z
           M 1167.78,93.00
           C 1162.57,104.03 1157.83,120.97 1155.12,133.00
             1153.97,138.10 1151.39,152.82 1161.00,150.55
             1166.85,149.17 1169.72,141.96 1171.85,137.00
             1176.44,126.32 1182.37,107.43 1184.79,96.00
             1186.11,89.77 1188.74,78.69 1179.00,79.45
             1172.37,82.03 1170.65,86.93 1167.78,93.00 Z
           M 1282.72,123.00
           C 1282.03,128.27 1280.96,139.10 1288.04,140.67
             1294.71,142.14 1297.32,134.91 1299.00,130.00
             1299.00,130.00 1309.28,97.00 1309.28,97.00
             1310.02,94.55 1313.20,84.93 1312.89,83.11
             1312.15,78.90 1307.20,79.03 1304.00,79.43
             1290.13,84.87 1284.46,109.58 1282.72,123.00 Z
           M 854.00,90.00
           C 854.00,90.00 855.00,91.00 855.00,91.00
             855.00,91.00 855.00,90.00 855.00,90.00
             855.00,90.00 854.00,90.00 854.00,90.00 Z
           M 144.00,100.00
           C 144.00,100.00 145.00,101.00 145.00,101.00
             145.00,101.00 145.00,100.00 145.00,100.00
             145.00,100.00 144.00,100.00 144.00,100.00 Z
           M 145.00,101.00
           C 145.00,101.00 146.00,102.00 146.00,102.00
             146.00,102.00 146.00,101.00 146.00,101.00
             146.00,101.00 145.00,101.00 145.00,101.00 Z
           M 104.67,143.61
           C 107.80,140.64 110.30,135.08 111.64,131.00
             113.66,124.88 115.68,116.40 109.78,111.70
             105.24,108.08 95.68,109.00 90.00,109.00
             90.00,109.00 79.00,148.00 79.00,148.00
             86.67,150.18 98.63,149.34 104.67,143.61 Z
           M 840.24,137.98
           C 840.02,144.16 845.67,143.21 847.69,139.77
             849.29,136.92 847.88,132.15 847.69,129.00
             846.62,123.36 847.01,120.50 847.69,115.00
             845.18,118.51 840.40,133.36 840.24,137.98 Z
           M 1347.16,135.00
           C 1346.60,137.19 1345.43,141.24 1348.32,142.34
             1351.24,143.46 1354.38,140.73 1354.94,137.98
             1355.27,136.32 1354.24,132.14 1354.04,130.00
             1354.04,130.00 1354.04,115.00 1354.04,115.00
             1351.98,118.31 1348.23,130.79 1347.16,135.00 Z" />
</svg>
