<?xml version="1.0" encoding="UTF-8" standalone="no"?>
<svg
   xmlns:dc="http://purl.org/dc/elements/1.1/"
   xmlns:cc="http://creativecommons.org/ns#"
   xmlns:rdf="http://www.w3.org/1999/02/22-rdf-syntax-ns#"
   xmlns:svg="http://www.w3.org/2000/svg"
   xmlns="http://www.w3.org/2000/svg"
   xmlns:sodipodi="http://sodipodi.sourceforge.net/DTD/sodipodi-0.dtd"
   xmlns:inkscape="http://www.inkscape.org/namespaces/inkscape"
   inkscape:export-ydpi="36.118214"
   inkscape:export-xdpi="36.118214"
   inkscape:export-filename="/Users/cfalguiere/Documents/2021-07/git-repos/www.bulles-de-code.fr/assets/images/landpage/text-blog.png"
   width="100.34147"
   height="35.542629"
   viewBox="0 0 26.548683 9.4039873"
   version="1.1"
   id="svg8"
   inkscape:version="1.0rc1 (09960d6, 2020-04-09)"
   sodipodi:docname="sep-light.svg">
  <defs
     id="defs2" />
  <sodipodi:namedview
     units="px"
     fit-margin-bottom="0"
     fit-margin-right="0"
     fit-margin-left="0"
     fit-margin-top="0"
     id="base"
     pagecolor="#1d1d1d"
     bordercolor="#666666"
     borderopacity="1.0"
     inkscape:pageopacity="1"
     inkscape:pageshadow="2"
     inkscape:zoom="1"
     inkscape:cx="4.0666251"
     inkscape:cy="29.735287"
     inkscape:document-units="mm"
     inkscape:current-layer="layer1"
     inkscape:document-rotation="0"
     showgrid="true"
     inkscape:pagecheckerboard="false"
     showguides="true"
     inkscape:guide-bbox="true"
     inkscape:snap-bbox="true"
     inkscape:snap-grids="true"
     inkscape:window-width="1575"
     inkscape:window-height="924"
     inkscape:window-x="9"
     inkscape:window-y="80"
     inkscape:window-maximized="0"
     inkscape:object-nodes="false">
    <inkscape:grid
       originy="-60.366695"
       originx="-47.665209"
       type="xygrid"
       id="grid833" />
  </sodipodi:namedview>
  <metadata
     id="metadata5">
    <rdf:RDF>
      <cc:Work
         rdf:about="">
        <dc:format>image/svg+xml</dc:format>
        <dc:type
           rdf:resource="http://purl.org/dc/dcmitype/StillImage" />
        <dc:title></dc:title>
      </cc:Work>
    </rdf:RDF>
  </metadata>
  <g
     transform="translate(-34.17143,-41.819183)"
     style="display:inline"
     inkscape:label="back-bubble"
     id="layer8"
     inkscape:groupmode="layer" />
  <g
     style="display:inline"
     transform="translate(-47.66518,-60.366695)"
     inkscape:label="Layer 1"
     inkscape:groupmode="layer"
     id="layer1">
    <path
       inkscape:connector-curvature="0"
       d="m 56.75444,64.901858 c -1.13028,0.263253 -2.77367,0.37402 -3.39085,0.789758 -0.33333,0.224515 1.48324,-0.02457 2.22002,-0.0011 0.82599,0.02632 1.6394,0.089 2.44945,0.149886 0.99931,0.07511 1.96456,0.202904 2.97519,0.257831 3.37951,0.183673 5.81521,0.140861 9.26859,0.149275 0,0 3.93702,-0.969333 3.93702,-0.969333 v 0 c -3.3365,-0.02183 -5.61136,0.01783 -8.84924,-0.195746 -9.5252,-0.628281 2.9236,-0.0073 -5.3387,-0.476526 -0.73441,-0.04171 -1.518,-0.164351 -2.22104,-0.081 -2.27029,0.269153 -4.29036,0.738189 -6.43553,1.107283 0,0 5.38509,-0.730325 5.38509,-0.730325 z"
       id="path909"
       style="fill:#d6e8fd;fill-opacity:1;stroke:#4472c2;stroke-width:0;stroke-linecap:round;stroke-linejoin:round;stroke-miterlimit:4.7;stop-color:#000000" />
    <path
       style="display:inline;fill:#d6e8fd;fill-opacity:1;stroke:#4472c2;stroke-width:0;stroke-linecap:round;stroke-linejoin:round;stroke-miterlimit:4.7;stop-color:#000000"
       id="path909-9"
       d="m 53.05027,68.425032 c -1.13028,0.263253 -2.77367,0.37402 -3.39085,0.789758 -0.33333,0.224515 1.48324,-0.02457 2.22002,-0.0011 0.82599,0.02632 1.6394,0.089 2.44945,0.149886 0.99931,0.07511 1.96456,0.202904 2.97519,0.257831 3.37951,0.183673 5.81521,0.140862 9.26859,0.149275 0,0 3.93702,-0.969333 3.93702,-0.969333 v 0 c -3.3365,-0.02183 -5.61136,0.01783 -8.84924,-0.195746 -9.5252,-0.628282 2.9236,-0.0073 -5.3387,-0.476527 -0.73441,-0.04171 -1.518,-0.16435 -2.22104,-0.081 -2.27029,0.269152 -4.29036,0.738188 -6.43553,1.107282 0,0 5.38509,-0.730324 5.38509,-0.730324 z"
       inkscape:connector-curvature="0" />
    <path
       style="display:inline;fill:#d7e8fd;fill-opacity:1;stroke:#4472c2;stroke-width:0;stroke-linecap:round;stroke-linejoin:round;stroke-miterlimit:4.7;stop-color:#000000"
       id="path909-0"
       d="m 54.90236,66.663445 c -1.13028,0.263253 -2.77367,0.37402 -3.39085,0.789758 -0.33333,0.224515 1.48324,-0.02457 2.22002,-0.0011 0.82599,0.02632 1.6394,0.089 2.44945,0.149885 0.99931,0.07511 1.96456,0.202904 2.97519,0.257831 3.37951,0.183673 5.81521,0.140862 9.26859,0.149275 0,0 3.93702,-0.969332 3.93702,-0.969332 v 0 c -3.3365,-0.02183 -5.61136,0.01783 -8.84924,-0.195747 -9.5252,-0.628281 2.9236,-0.0073 -5.3387,-0.476526 -0.73441,-0.04171 -1.518,-0.164351 -2.22104,-0.081 -2.27029,0.269152 -4.29036,0.738188 -6.43553,1.107282 0,0 5.38509,-0.730324 5.38509,-0.730324 z"
       inkscape:connector-curvature="0" />
    <path
       d="m 61.604894,61.953622 a 1.5,1.5 0 0 1 -1.541006,1.412453 1.5,1.5 0 0 1 -1.456474,-1.49947 1.5,1.5 0 0 1 1.456677,-1.499272 1.5,1.5 0 0 1 1.540815,1.412662 l -1.497492,0.08671 z"
       sodipodi:arc-type="slice"
       sodipodi:end="6.2253451"
       sodipodi:start="0.057975823"
       sodipodi:ry="1.5"
       sodipodi:rx="1.5"
       sodipodi:cy="61.866707"
       sodipodi:cx="60.107414"
       sodipodi:type="arc"
       id="path932"
       style="fill:#d7e8fd;fill-opacity:1;stroke:#4472c2;stroke-width:0;stroke-linecap:round;stroke-linejoin:round;stroke-miterlimit:4.7;stop-color:#000000" />
  </g>
</svg>
