<?xml version="1.0" encoding="UTF-8" standalone="no"?>
<svg
   xmlns:dc="http://purl.org/dc/elements/1.1/"
   xmlns:cc="http://creativecommons.org/ns#"
   xmlns:rdf="http://www.w3.org/1999/02/22-rdf-syntax-ns#"
   xmlns:svg="http://www.w3.org/2000/svg"
   xmlns="http://www.w3.org/2000/svg"
   xmlns:sodipodi="http://sodipodi.sourceforge.net/DTD/sodipodi-0.dtd"
   xmlns:inkscape="http://www.inkscape.org/namespaces/inkscape"
   sodipodi:docname="sep.svg"
   inkscape:version="1.0rc1 (09960d6, 2020-04-09)"
   id="svg8"
   version="1.1"
   viewBox="0 0 141.95044 52.74347"
   height="199.3454"
   width="536.50555"
   inkscape:export-filename="/Users/cfalguiere/Documents/2021-07/git-repos/www.bulles-de-code.fr/assets/images/landpage/text-blog.png"
   inkscape:export-xdpi="36.118214"
   inkscape:export-ydpi="36.118214">
  <defs
     id="defs2" />
  <sodipodi:namedview
     inkscape:object-nodes="false"
     inkscape:window-maximized="0"
     inkscape:window-y="102"
     inkscape:window-x="9"
     inkscape:window-height="924"
     inkscape:window-width="1575"
     inkscape:snap-grids="true"
     inkscape:snap-bbox="true"
     inkscape:guide-bbox="true"
     showguides="true"
     inkscape:pagecheckerboard="false"
     showgrid="true"
     inkscape:document-rotation="0"
     inkscape:current-layer="layer1"
     inkscape:document-units="mm"
     inkscape:cy="137.239"
     inkscape:cx="154.98765"
     inkscape:zoom="1"
     inkscape:pageshadow="2"
     inkscape:pageopacity="1"
     borderopacity="1.0"
     bordercolor="#666666"
     pagecolor="#1d1d1d"
     id="base"
     fit-margin-top="0"
     fit-margin-left="0"
     fit-margin-right="0"
     fit-margin-bottom="0"
     units="px">
    <inkscape:grid
       id="grid833"
       type="xygrid"
       originx="-21.957194"
       originy="-31.923004" />
    <sodipodi:guide
       inkscape:color="rgb(245,121,0)"
       inkscape:locked="false"
       inkscape:label=""
       id="guide835"
       orientation="-1,0"
       position="46.834487,-31.750194" />
    <sodipodi:guide
       inkscape:color="rgb(245,121,0)"
       inkscape:locked="false"
       inkscape:label=""
       id="guide839"
       orientation="-1,0"
       position="25.667816,-0.00019351899" />
    <sodipodi:guide
       id="guide841"
       orientation="1,0"
       position="60.063825,-26.458528" />
    <sodipodi:guide
       inkscape:color="rgb(245,121,0)"
       inkscape:locked="false"
       inkscape:label=""
       id="guide843"
       orientation="-1,0"
       position="62.709825,-13.229358" />
    <sodipodi:guide
       inkscape:color="rgb(245,121,0)"
       inkscape:locked="false"
       inkscape:label=""
       id="guide847"
       orientation="-1,0"
       position="83.87582,-18.521028" />
    <sodipodi:guide
       inkscape:color="rgb(245,121,0)"
       inkscape:locked="false"
       inkscape:label=""
       id="guide849"
       orientation="-1,0"
       position="83.87615,5.2914736" />
    <sodipodi:guide
       inkscape:color="rgb(245,121,0)"
       inkscape:locked="false"
       inkscape:label=""
       id="guide853"
       orientation="0,1"
       position="-48.415521,31.749808" />
    <sodipodi:guide
       inkscape:color="rgb(245,121,0)"
       inkscape:locked="false"
       inkscape:label=""
       id="guide855"
       orientation="0,1"
       position="-0.26134465,10.31847" />
    <sodipodi:guide
       inkscape:color="rgb(245,121,0)"
       inkscape:locked="false"
       inkscape:label=""
       id="guide857"
       orientation="0,1"
       position="150.022,-0.00019351899" />
    <sodipodi:guide
       inkscape:color="rgb(245,121,0)"
       inkscape:locked="false"
       inkscape:label=""
       id="guide906"
       orientation="-1,0"
       position="107.68883,-7.9377014" />
    <sodipodi:guide
       inkscape:color="rgb(245,121,0)"
       inkscape:locked="false"
       inkscape:label=""
       id="guide26703"
       orientation="-1,0"
       position="60.063825,-31.750194" />
    <sodipodi:guide
       inkscape:color="rgb(245,121,0)"
       inkscape:locked="false"
       inkscape:label=""
       id="guide26705"
       orientation="-1,0"
       position="44.188824,-18.521028" />
    <sodipodi:guide
       id="guide26707"
       orientation="1,0"
       position="139.43866,-26.458527" />
    <sodipodi:guide
       id="guide26709"
       orientation="0,-1"
       position="-3.4363446,55.562302" />
    <sodipodi:guide
       id="guide26711"
       orientation="0,-1"
       position="136.79283,-10.583526" />
    <sodipodi:guide
       inkscape:color="rgb(0,0,255)"
       inkscape:locked="false"
       inkscape:label=""
       id="guide26720"
       orientation="-1,0"
       position="-8.7280112,15.8748" />
    <sodipodi:guide
       id="guide26759"
       orientation="1,0"
       position="150.022,-23.812693" />
    <sodipodi:guide
       id="guide26784"
       orientation="0,-1"
       position="33.605323,60.853982" />
  </sodipodi:namedview>
  <metadata
     id="metadata5">
    <rdf:RDF>
      <cc:Work
         rdf:about="">
        <dc:format>image/svg+xml</dc:format>
        <dc:type
           rdf:resource="http://purl.org/dc/dcmitype/StillImage" />
        <dc:title />
      </cc:Work>
    </rdf:RDF>
  </metadata>
  <g
     inkscape:groupmode="layer"
     id="layer8"
     inkscape:label="back-bubble"
     style="display:inline"
     transform="translate(-8.4634282,-13.375492)" />
  <g
     id="layer1"
     inkscape:groupmode="layer"
     inkscape:label="Layer 1"
     transform="translate(-21.957178,-31.923004)"
     style="display:inline">
    <path
       style="fill:#d6e8fd;fill-opacity:1;stroke:#4472c2;stroke-width:0;stroke-linecap:round;stroke-linejoin:round;stroke-miterlimit:4.7;stop-color:#000000"
       id="path909"
       d="m 56.75444,64.901858 c -1.13028,0.263253 -2.77367,0.37402 -3.39085,0.789758 -0.33333,0.224515 1.48324,-0.02457 2.22002,-0.0011 0.82599,0.02632 1.6394,0.089 2.44945,0.149886 0.99931,0.07511 1.96456,0.202904 2.97519,0.257831 3.37951,0.183673 5.81521,0.140861 9.26859,0.149275 0,0 3.93702,-0.969333 3.93702,-0.969333 v 0 c -3.3365,-0.02183 -5.61136,0.01783 -8.84924,-0.195746 -9.5252,-0.628281 2.9236,-0.0073 -5.3387,-0.476526 -0.73441,-0.04171 -1.518,-0.164351 -2.22104,-0.081 -2.27029,0.269153 -4.29036,0.738189 -6.43553,1.107283 0,0 5.38509,-0.730325 5.38509,-0.730325 z"
       inkscape:connector-curvature="0" />
    <path
       inkscape:connector-curvature="0"
       d="m 53.05027,68.425032 c -1.13028,0.263253 -2.77367,0.37402 -3.39085,0.789758 -0.33333,0.224515 1.48324,-0.02457 2.22002,-0.0011 0.82599,0.02632 1.6394,0.089 2.44945,0.149886 0.99931,0.07511 1.96456,0.202904 2.97519,0.257831 3.37951,0.183673 5.81521,0.140862 9.26859,0.149275 0,0 3.93702,-0.969333 3.93702,-0.969333 v 0 c -3.3365,-0.02183 -5.61136,0.01783 -8.84924,-0.195746 -9.5252,-0.628282 2.9236,-0.0073 -5.3387,-0.476527 -0.73441,-0.04171 -1.518,-0.16435 -2.22104,-0.081 -2.27029,0.269152 -4.29036,0.738188 -6.43553,1.107282 0,0 5.38509,-0.730324 5.38509,-0.730324 z"
       id="path909-9"
       style="display:inline;fill:#d6e8fd;fill-opacity:1;stroke:#4472c2;stroke-width:0;stroke-linecap:round;stroke-linejoin:round;stroke-miterlimit:4.7;stop-color:#000000" />
    <path
       inkscape:connector-curvature="0"
       d="m 54.90236,66.663445 c -1.13028,0.263253 -2.77367,0.37402 -3.39085,0.789758 -0.33333,0.224515 1.48324,-0.02457 2.22002,-0.0011 0.82599,0.02632 1.6394,0.089 2.44945,0.149885 0.99931,0.07511 1.96456,0.202904 2.97519,0.257831 3.37951,0.183673 5.81521,0.140862 9.26859,0.149275 0,0 3.93702,-0.969332 3.93702,-0.969332 v 0 c -3.3365,-0.02183 -5.61136,0.01783 -8.84924,-0.195747 -9.5252,-0.628281 2.9236,-0.0073 -5.3387,-0.476526 -0.73441,-0.04171 -1.518,-0.164351 -2.22104,-0.081 -2.27029,0.269152 -4.29036,0.738188 -6.43553,1.107282 0,0 5.38509,-0.730324 5.38509,-0.730324 z"
       id="path909-0"
       style="display:inline;fill:#d7e8fd;fill-opacity:1;stroke:#4472c2;stroke-width:0;stroke-linecap:round;stroke-linejoin:round;stroke-miterlimit:4.7;stop-color:#000000" />
    <path
       style="fill:#d7e8fd;fill-opacity:1;stroke:#4472c2;stroke-width:0;stroke-linecap:round;stroke-linejoin:round;stroke-miterlimit:4.7;stop-color:#000000"
       id="path932"
       sodipodi:type="arc"
       sodipodi:cx="60.107414"
       sodipodi:cy="61.866707"
       sodipodi:rx="1.5"
       sodipodi:ry="1.5"
       sodipodi:start="0.057975823"
       sodipodi:end="6.2253451"
       sodipodi:arc-type="slice"
       d="m 61.604894,61.953622 a 1.5,1.5 0 0 1 -1.541006,1.412453 1.5,1.5 0 0 1 -1.456474,-1.49947 1.5,1.5 0 0 1 1.456677,-1.499272 1.5,1.5 0 0 1 1.540815,1.412662 l -1.497492,0.08671 z" />
    <path
       inkscape:connector-curvature="0"
       d="m 56.75444,44.52894 c -1.13028,0.263253 -2.77367,0.37402 -3.39085,0.789758 -0.33333,0.224515 1.48324,-0.02457 2.22002,-0.0011 0.82599,0.02632 1.6394,0.089 2.44945,0.149886 0.99931,0.07511 1.96456,0.202903 2.97519,0.25783 3.37951,0.183674 5.81521,0.140861 9.26859,0.149275 0,0 3.93702,-0.969332 3.93702,-0.969332 v 0 c -3.3365,-0.02182 -5.61136,0.01784 -8.84924,-0.195735 -9.5252,-0.628281 2.9236,-0.0073 -5.3387,-0.476526 -0.73441,-0.04171 -1.518,-0.164351 -2.22104,-0.081 -2.27029,0.269153 -4.29036,0.738189 -6.43553,1.107283 0,0 5.38509,-0.730325 5.38509,-0.730325 z"
       id="path909-92"
       style="display:inline;fill:#4472c2;fill-opacity:1;stroke:#4472c2;stroke-width:0;stroke-linecap:round;stroke-linejoin:round;stroke-miterlimit:4.7;stop-color:#000000" />
    <path
       style="display:inline;fill:#4472c2;fill-opacity:1;stroke:#4472c2;stroke-width:0;stroke-linecap:round;stroke-linejoin:round;stroke-miterlimit:4.7;stop-color:#000000"
       id="path909-9-9"
       d="m 53.05027,48.052114 c -1.13028,0.263253 -2.77367,0.37402 -3.39085,0.789758 -0.33333,0.224515 1.48324,-0.02457 2.22002,-0.0011 0.82599,0.02632 1.6394,0.089 2.44945,0.149886 0.99931,0.07511 1.96456,0.202904 2.97519,0.257831 3.37951,0.183673 5.81521,0.140862 9.26859,0.149275 0,0 3.93702,-0.969333 3.93702,-0.969333 v 0 c -3.3365,-0.02182 -5.61136,0.01784 -8.84924,-0.195735 -9.5252,-0.628282 2.9236,-0.0073 -5.3387,-0.476527 -0.73441,-0.04171 -1.518,-0.16435 -2.22104,-0.081 -2.27029,0.269152 -4.29036,0.738188 -6.43553,1.107282 0,0 5.38509,-0.730324 5.38509,-0.730324 z"
       inkscape:connector-curvature="0" />
    <path
       style="display:inline;fill:#4472c2;fill-opacity:1;stroke:#4472c2;stroke-width:0;stroke-linecap:round;stroke-linejoin:round;stroke-miterlimit:4.7;stop-color:#000000"
       id="path909-0-3"
       d="m 54.90236,46.290527 c -1.13028,0.263253 -2.77367,0.37402 -3.39085,0.789758 -0.33333,0.224515 1.48324,-0.02457 2.22002,-0.0011 0.82599,0.02632 1.6394,0.089 2.44945,0.149885 0.99931,0.07511 1.96456,0.202904 2.97519,0.257831 3.37951,0.183673 5.81521,0.140862 9.26859,0.149275 0,0 3.93702,-0.969332 3.93702,-0.969332 v 0 c -3.3365,-0.02182 -5.61136,0.01784 -8.84924,-0.195736 -9.5252,-0.628281 2.9236,-0.0073 -5.3387,-0.476526 -0.73441,-0.04171 -1.518,-0.164351 -2.22104,-0.081 -2.27029,0.269152 -4.29036,0.738188 -6.43553,1.107282 0,0 5.38509,-0.730324 5.38509,-0.730324 z"
       inkscape:connector-curvature="0" />
    <path
       d="m 61.604894,41.580705 a 1.5,1.5 0 0 1 -1.541006,1.412453 1.5,1.5 0 0 1 -1.456474,-1.49947 1.5,1.5 0 0 1 1.456677,-1.499273 1.5,1.5 0 0 1 1.540815,1.412663 l -1.497492,0.08671 z"
       sodipodi:arc-type="slice"
       sodipodi:end="6.2253451"
       sodipodi:start="0.057975823"
       sodipodi:ry="1.5"
       sodipodi:rx="1.5"
       sodipodi:cy="41.49379"
       sodipodi:cx="60.107414"
       sodipodi:type="arc"
       id="path932-9"
       style="display:inline;fill:#4472c2;fill-opacity:1;stroke:#4472c2;stroke-width:0;stroke-linecap:round;stroke-linejoin:round;stroke-miterlimit:4.7;stop-color:#000000" />
  </g>
</svg>
