<?xml version="1.0" encoding="UTF-8" standalone="no"?>
<svg
   xmlns:dc="http://purl.org/dc/elements/1.1/"
   xmlns:cc="http://creativecommons.org/ns#"
   xmlns:rdf="http://www.w3.org/1999/02/22-rdf-syntax-ns#"
   xmlns:svg="http://www.w3.org/2000/svg"
   xmlns="http://www.w3.org/2000/svg"
   xmlns:sodipodi="http://sodipodi.sourceforge.net/DTD/sodipodi-0.dtd"
   xmlns:inkscape="http://www.inkscape.org/namespaces/inkscape"
   inkscape:export-ydpi="38.255558"
   inkscape:export-xdpi="38.255558"
   inkscape:export-filename="/Users/cfalguiere/Documents/2021-07/git-repos/www.bulles-de-code.fr/assets/images/landpage/text-photos.png"
   width="698.64838"
   height="188.20795"
   viewBox="0 0 184.85071 49.796686"
   version="1.1"
   id="svg8"
   inkscape:version="1.0rc1 (09960d6, 2020-04-09)"
   sodipodi:docname="text-photos.svg">
  <defs
     id="defs2" />
  <sodipodi:namedview
     units="px"
     fit-margin-bottom="0"
     fit-margin-right="0"
     fit-margin-left="0"
     fit-margin-top="0"
     id="base"
     pagecolor="#1d1d1d"
     bordercolor="#666666"
     borderopacity="1.0"
     inkscape:pageopacity="1"
     inkscape:pageshadow="2"
     inkscape:zoom="1"
     inkscape:cx="548.79675"
     inkscape:cy="64.726724"
     inkscape:document-units="mm"
     inkscape:current-layer="layer1"
     inkscape:document-rotation="0"
     showgrid="true"
     inkscape:pagecheckerboard="false"
     showguides="true"
     inkscape:guide-bbox="true"
     inkscape:snap-bbox="false"
     inkscape:snap-grids="true"
     inkscape:window-width="1575"
     inkscape:window-height="924"
     inkscape:window-x="105"
     inkscape:window-y="23"
     inkscape:window-maximized="0"
     inkscape:object-nodes="false">
    <inkscape:grid
       originy="-39.734958"
       originx="-26.420546"
       type="xygrid"
       id="grid833" />
    <sodipodi:guide
       position="42.371454,-24.239187"
       orientation="-1,0"
       id="guide835"
       inkscape:label=""
       inkscape:locked="false"
       inkscape:color="rgb(245,121,0)" />
    <sodipodi:guide
       position="37.07945,60.427475"
       orientation="-1,0"
       id="guide839"
       inkscape:label=""
       inkscape:locked="false"
       inkscape:color="rgb(245,121,0)" />
    <sodipodi:guide
       position="66.183618,4.8649778"
       orientation="-1,0"
       id="guide843"
       inkscape:label=""
       inkscape:locked="false"
       inkscape:color="rgb(245,121,0)" />
    <sodipodi:guide
       position="89.996128,2.2191438"
       orientation="-1,0"
       id="guide847"
       inkscape:label=""
       inkscape:locked="false"
       inkscape:color="rgb(245,121,0)" />
    <sodipodi:guide
       position="87.350288,7.5108098"
       orientation="-1,0"
       id="guide849"
       inkscape:label=""
       inkscape:locked="false"
       inkscape:color="rgb(245,121,0)" />
    <sodipodi:guide
       position="34.433618,49.844143"
       orientation="0,1"
       id="guide851"
       inkscape:label=""
       inkscape:locked="false"
       inkscape:color="rgb(245,121,0)" />
    <sodipodi:guide
       position="-2.6080466,36.61464"
       orientation="0,1"
       id="guide853"
       inkscape:label=""
       inkscape:locked="false"
       inkscape:color="rgb(245,121,0)" />
    <sodipodi:guide
       position="13.266951,23.385811"
       orientation="0,1"
       id="guide855"
       inkscape:label=""
       inkscape:locked="false"
       inkscape:color="rgb(245,121,0)" />
    <sodipodi:guide
       position="26.496118,4.8649778"
       orientation="0,1"
       id="guide857"
       inkscape:label=""
       inkscape:locked="false"
       inkscape:color="rgb(245,121,0)" />
    <sodipodi:guide
       position="63.537784,2.2191438"
       orientation="-1,0"
       id="guide26703"
       inkscape:label=""
       inkscape:locked="false"
       inkscape:color="rgb(245,121,0)" />
    <sodipodi:guide
       position="39.725455,-13.655858"
       orientation="-1,0"
       id="guide26705"
       inkscape:label=""
       inkscape:locked="false"
       inkscape:color="rgb(245,121,0)" />
    <sodipodi:guide
       inkscape:color="rgb(245,121,0)"
       inkscape:locked="false"
       inkscape:label=""
       position="150.85022,10.156644"
       orientation="-1,0"
       id="guide26707" />
    <sodipodi:guide
       position="-7.8997125,60.427469"
       orientation="0,-1"
       id="guide26709" />
    <sodipodi:guide
       position="132.32947,-5.7183551"
       orientation="0,-1"
       id="guide26711" />
    <sodipodi:guide
       position="-13.191378,20.73997"
       orientation="-1,0"
       id="guide26720"
       inkscape:label=""
       inkscape:locked="false"
       inkscape:color="rgb(0,0,255)" />
    <sodipodi:guide
       position="182.6003,-8.364189"
       orientation="1,0"
       id="guide26759" />
    <sodipodi:guide
       position="29.141955,65.719147"
       orientation="0,-1"
       id="guide26784" />
    <sodipodi:guide
       inkscape:color="rgb(245,121,0)"
       inkscape:locked="false"
       inkscape:label=""
       id="guide86870"
       orientation="-1,0"
       position="103.22521,-18.947523" />
    <sodipodi:guide
       inkscape:color="rgb(245,121,0)"
       inkscape:locked="false"
       inkscape:label=""
       id="guide86872"
       orientation="-1,0"
       position="105.87121,-24.23919" />
    <sodipodi:guide
       inkscape:color="rgb(245,121,0)"
       inkscape:locked="false"
       inkscape:label=""
       id="guide86885"
       orientation="-1,0"
       position="127.03822,-24.23919" />
    <sodipodi:guide
       inkscape:color="rgb(245,121,0)"
       inkscape:locked="false"
       inkscape:label=""
       id="guide86887"
       orientation="-1,0"
       position="129.68322,-13.655856" />
  </sodipodi:namedview>
  <metadata
     id="metadata5">
    <rdf:RDF>
      <cc:Work
         rdf:about="">
        <dc:format>image/svg+xml</dc:format>
        <dc:type
           rdf:resource="http://purl.org/dc/dcmitype/StillImage" />
        <dc:title />
      </cc:Work>
    </rdf:RDF>
  </metadata>
  <g
     transform="translate(-12.926795,-21.187446)"
     inkscape:label="title-bubble"
     id="layer10"
     inkscape:groupmode="layer">
    <path
       transform="matrix(1.2016065,0.48253115,-0.57653082,1.1840541,20.913137,2.1142854)"
       inkscape:transform-center-y="21.431125"
       inkscape:transform-center-x="-31.857322"
       d="m 36.647896,42.817571 c -3.429019,3.553817 -9.351574,-0.851 -13.778341,-3.039955 C 16.707295,36.730492 8.9223619,34.777887 7.024745,28.170507 5.6615587,23.42398 12.437519,20.497306 16.546594,17.758091 22.266611,13.944979 27.850083,8.1793318 34.52105,9.8396372 c 4.792206,1.1927098 3.9388,8.5242008 4.256493,13.4523708 0.442242,6.860236 2.643704,14.578488 -2.129647,19.525563 z"
       inkscape:randomized="0"
       inkscape:rounded="0.35"
       inkscape:flatsided="false"
       sodipodi:arg2="1.8147663"
       sodipodi:arg1="0.98279372"
       sodipodi:r2="13.226732"
       sodipodi:r1="19.079374"
       sodipodi:cy="26.942572"
       sodipodi:cx="26.064564"
       sodipodi:sides="3"
       id="path175078"
       style="display:inline;fill:#4472c2;fill-opacity:1;stroke-width:0.536791;stroke-linecap:round;stroke-linejoin:round;stop-color:#000000"
       sodipodi:type="star" />
  </g>
  <g
     transform="translate(-26.420545,-39.734958)"
     inkscape:label="Layer 1"
     inkscape:groupmode="layer"
     id="layer1">
    <rect
       ry="3.4395838"
       y="39.81979"
       x="68.830406"
       height="34.395836"
       width="3.9026048"
       id="rect86866"
       style="fill:#d6e8fd;fill-opacity:1;stroke-width:1.02188;stroke-linecap:round;stroke-linejoin:round;stroke-opacity:0.690196;stop-color:#000000" />
    <rect
       style="fill:#d6e8fd;fill-opacity:1;stroke-width:0.618078;stroke-linecap:round;stroke-linejoin:round;stroke-opacity:0.690196;stop-color:#000000"
       id="rect86904"
       width="4.0348964"
       height="12.170835"
       x="85.923439"
       y="62.177078"
       ry="3.1612558" />
    <path
       sodipodi:nodetypes="csccccccsccsssccccscc"
       inkscape:connector-curvature="0"
       d="m 162.76268,52.971759 c -3.67947,0 -6.64146,2.961984 -6.64146,6.641454 0,1.418 0.44134,2.72843 1.19269,3.80494 1.49852,2.0686 3.21011,2.68962 5.35523,2.69676 l 7.95145,-0.0468 c 1.16172,-0.14932 2.50229,1.15934 2.52543,2.05775 0,1.0883 -1.43717,1.96474 -2.52546,1.96474 -4.33195,0.0173 -8.54349,0.0453 -12.53512,0.0935 -1.0883,0 -1.96422,0.87593 -1.96422,1.96422 0,1.08829 0.87592,1.96422 1.96422,1.96422 4.15459,2.5e-4 8.606,5.3e-4 12.44162,0 3.67948,0 6.64145,-2.96198 6.64145,-6.64146 0,-1.41809 -0.94541,-2.87815 -2.0345,-3.89846 -1.08909,-1.02032 -3.13817,-1.38092 -4.60695,-1.43351 -1.46878,-0.0526 -7.76438,-0.0935 -7.76438,-0.0935 -1.66368,-0.019 -2.6878,-1.57831 -2.7125,-2.52595 0,-1.0883 1.62431,-2.68122 2.7125,-2.66574 3.55339,0.0522 6.45641,0.0919 9.96269,0.14031 1.1141,0.0154 2.01125,-0.89704 2.01125,-2.01125 0,-1.1142 -0.89705,-2.011243 -2.01125,-2.011243 -3.38227,0 -6.45465,0 -9.96269,-10e-7 z"
       style="fill:#d6e8fd;fill-opacity:1;stroke-width:1.45545;stroke-linecap:round;stroke-linejoin:round;stroke-opacity:0.690196;stop-color:#000000"
       id="rect115286" />
    <g
       id="g115949"
       transform="translate(71.371354,0.26458333)">
      <path
         id="path115254"
         style="fill:#d7e8fd;fill-opacity:1;stroke-width:0.975617;stroke-linecap:round;stroke-linejoin:round;stroke-opacity:0.690196;stop-color:#000000"
         d="m 46.916258,39.470408 c -0.01556,1.1e-5 -0.03256,0.0036 -0.04858,0.0047 -1.039596,0.04761 -1.865519,1.097076 -1.865519,2.396752 v 19.208647 c 0.03713,1.635633 0.01603,3.3269 0.01603,4.983156 0,4.268382 3.902601,8.001344 6.588228,7.868253 1.665782,-0.02716 3.246903,0.302813 4.799708,0.07906 0.998826,-0.08058 1.779217,-0.910357 1.779217,-1.93063 0,-1.073973 -0.864409,-1.938382 -1.938382,-1.938382 h -3.53105 c -2.472203,-0.310383 -3.733916,-3.356914 -3.795633,-4.937682 0.01193,-1.025586 -0.01185,-4.194334 -0.04082,-7.72046 v -15.61201 c 0,-1.276 -0.796399,-2.310707 -1.809192,-2.393136 -0.03889,-0.0063 -0.07559,-0.0078 -0.111622,-0.0072 -0.0061,-6.9e-5 -0.01199,-0.001 -0.0181,-0.001 -0.0024,0 -0.0048,5.02e-4 -0.0072,5.29e-4 -0.0055,3.44e-4 -0.0117,-10e-4 -0.01704,-5.29e-4 z"
         inkscape:connector-curvature="0"
         sodipodi:nodetypes="ccsccccsscccsccscc" />
      <rect
         style="fill:#d7e8fd;fill-opacity:1;stroke-width:0.992946;stroke-linecap:round;stroke-linejoin:round;stroke-opacity:0.690196;stop-color:#000000"
         id="rect115256"
         width="11.443229"
         height="4.0348959"
         x="46.765106"
         y="48.842304"
         ry="2.0174479" />
    </g>
    <g
       transform="rotate(4.9605844,55.573869,68.78591)"
       id="g177118">
      <path
         id="rect861-1"
         style="fill:#d6e8fd;fill-opacity:1;stroke-width:0.936363;stroke-linecap:round;stroke-linejoin:round;stroke-opacity:0.690196;stop-color:#000000"
         d="m 55.667921,52.90045 c -5.899812,0 -10.743531,4.72017 -10.743531,10.58334 0,5.86317 4.749668,10.86393 10.649479,10.86393 5.899812,0 10.649479,-5.00076 10.649479,-10.86393 0,-5.86317 -4.655616,-10.58334 -10.555427,-10.58334 z m -0.138494,3.91863 c 3.682802,0 6.647656,2.99435 6.647656,6.7138 0,3.71945 -2.964854,6.7138 -6.647656,6.7138 -3.682801,0 -6.647656,-2.99435 -6.647656,-6.7138 0,-3.71945 2.964855,-6.7138 6.647656,-6.7138 z"
         inkscape:connector-curvature="0" />
      <rect
         style="fill:#d6e8fd;fill-opacity:1;stroke-width:0.851;stroke-linecap:round;stroke-linejoin:round;stroke-opacity:0.690196;stop-color:#000000"
         id="rect863-6"
         width="3.8771539"
         height="24.010939"
         x="44.985817"
         y="60.660431"
         ry="2.4010942" />
    </g>
    <path
       inkscape:connector-curvature="0"
       d="m 103.12136,52.916471 c -5.826532,0 -10.517192,4.77917 -10.517192,10.71563 0,5.93646 4.69066,10.71562 10.517192,10.71562 5.82652,0 10.51718,-4.77916 10.51718,-10.71562 0,-5.93646 -4.69066,-10.71563 -10.51718,-10.71563 z m -0.16537,3.96875 c 3.64616,0 6.58151,2.95011 6.58151,6.61459 0,3.66448 -2.93535,6.61458 -6.58151,6.61458 -3.646162,0 -6.581512,-2.9501 -6.581512,-6.61458 0,-3.66448 2.93535,-6.61459 6.581512,-6.61459 z"
       style="fill:#d7e8fd;fill-opacity:1;stroke-width:0.936326;stroke-linecap:round;stroke-linejoin:round;stroke-opacity:0.690196;stop-color:#000000"
       id="rect879-0" />
    <path
       id="path116003"
       style="fill:#d7e8fd;fill-opacity:1;stroke-width:0.936326;stroke-linecap:round;stroke-linejoin:round;stroke-opacity:0.690196;stop-color:#000000"
       d="m 142.94115,52.91647 c -5.82653,0 -10.51719,4.77917 -10.51719,10.71563 0,5.93646 4.69066,10.71562 10.51719,10.71562 5.82652,0 10.51718,-4.77916 10.51718,-10.71562 0,-5.93646 -4.69066,-10.71563 -10.51718,-10.71563 z m -0.16537,3.96875 c 3.64616,0 6.58151,2.95011 6.58151,6.61459 0,3.66448 -2.93535,6.61458 -6.58151,6.61458 -3.64616,0 -6.58151,-2.9501 -6.58151,-6.61458 0,-3.66448 2.93535,-6.61459 6.58151,-6.61459 z"
       inkscape:connector-curvature="0" />
    <path
       id="path116005"
       style="fill:#d7e8fd;fill-opacity:1;stroke-width:3.53887;stroke-linecap:round;stroke-linejoin:round;stroke-opacity:0.690196;stop-color:#000000"
       d="m 249,129.89844 c -22.02154,0 -39.75,18.06298 -39.75,40.5 0,12.76684 5.74528,24.11085 14.75,31.52344 0.62173,-10.49707 -0.4617,-21.97248 -0.5,-32.02344 0,-13.85001 11.09423,-25 24.875,-25 13.78076,0 24.875,11.14999 24.875,25 0.887,10.41236 0.5,21.43963 0.5,32.22461 9.14752,-7.40747 15,-18.84069 15,-31.72461 0,-22.43702 -17.72851,-40.5 -39.75,-40.5 z"
       transform="matrix(0.26458333,0,0,0.26458333,13.49375,18.547512)"
       inkscape:connector-curvature="0"
       sodipodi:nodetypes="ssccsccss" />
    <g
       id="g1621"
       transform="rotate(40.551311,-9.7752526,42.38511)">
      <path
         style="display:inline;fill:#d6e8fd;fill-opacity:1;stroke:#4472c2;stroke-width:0;stroke-linecap:round;stroke-linejoin:round;stroke-miterlimit:4.7;stop-color:#000000"
         id="path885"
         d="m 31.827407,26.531927 c -0.46093,-1.299266 0.13436,-3.034394 0.63277,-4.199749 1.09685,-2.5646 1.90977,-3.584991 3.43917,-5.986589 3.88701,-5.388786 8.18995,-10.3466677 12.68814,-15.0235177 0.57037,-0.59106897 1.15563,-1.16092797 1.75339,-1.71232097 0,0 -1.94258,0.778899 -1.94258,0.778899 v 0 c -0.513,0.532782 -1.01912,1.07468297 -1.51616,1.62826497 -4.255,4.751927 -8.36537,9.6902927 -12.24245,14.8714747 -1.65003,2.464379 -2.53787,3.555848 -3.77969,6.189289 -0.62685,1.329324 -1.13268,2.758241 -1.00757,4.27483 0.01,0.120603 0.0566,0.231484 0.0849,0.347229 0,0 1.89005,-1.16781 1.89005,-1.16781 z"
         inkscape:connector-curvature="0" />
      <path
         d="m 33.826875,29.813491 a 1.5,1.5 0 0 1 -1.541006,1.412453 1.5,1.5 0 0 1 -1.456474,-1.49947 1.5,1.5 0 0 1 1.456677,-1.499272 1.5,1.5 0 0 1 1.540815,1.412662 l -1.497492,0.08671 z"
         sodipodi:arc-type="slice"
         sodipodi:end="6.2253451"
         sodipodi:start="0.057975823"
         sodipodi:ry="1.5"
         sodipodi:rx="1.5"
         sodipodi:cy="29.726576"
         sodipodi:cx="32.329395"
         sodipodi:type="arc"
         id="path932-7"
         style="display:inline;fill:#d7e8fd;fill-opacity:1;stroke:#4472c2;stroke-width:0;stroke-linecap:round;stroke-linejoin:round;stroke-miterlimit:4.7;stop-color:#000000" />
    </g>
  </g>
</svg>
