<?xml version="1.0" encoding="UTF-8" standalone="no"?>
<svg
   xmlns:dc="http://purl.org/dc/elements/1.1/"
   xmlns:cc="http://creativecommons.org/ns#"
   xmlns:rdf="http://www.w3.org/1999/02/22-rdf-syntax-ns#"
   xmlns:svg="http://www.w3.org/2000/svg"
   xmlns="http://www.w3.org/2000/svg"
   xmlns:sodipodi="http://sodipodi.sourceforge.net/DTD/sodipodi-0.dtd"
   xmlns:inkscape="http://www.inkscape.org/namespaces/inkscape"
   sodipodi:docname="text-blog.svg"
   inkscape:version="1.0rc1 (09960d6, 2020-04-09)"
   id="svg8"
   version="1.1"
   viewBox="0 0 154.42521 77.232181"
   height="291.90115"
   width="583.6543">
  <defs
     id="defs2" />
  <sodipodi:namedview
     inkscape:object-nodes="false"
     inkscape:window-maximized="0"
     inkscape:window-y="23"
     inkscape:window-x="43"
     inkscape:window-height="924"
     inkscape:window-width="1575"
     inkscape:snap-grids="true"
     inkscape:snap-bbox="false"
     inkscape:guide-bbox="true"
     showguides="true"
     inkscape:pagecheckerboard="false"
     showgrid="true"
     inkscape:document-rotation="0"
     inkscape:current-layer="layer1"
     inkscape:document-units="mm"
     inkscape:cy="325.5961"
     inkscape:cx="74.572548"
     inkscape:zoom="1"
     inkscape:pageshadow="2"
     inkscape:pageopacity="1"
     borderopacity="1.0"
     bordercolor="#666666"
     pagecolor="#1d1d1d"
     id="base"
     fit-margin-top="0"
     fit-margin-left="0"
     fit-margin-right="0"
     fit-margin-bottom="0"
     units="px">
    <inkscape:grid
       id="grid833"
       type="xygrid"
       originx="-13.493753"
       originy="-18.547512" />
    <sodipodi:guide
       inkscape:color="rgb(245,121,0)"
       inkscape:locked="false"
       inkscape:label=""
       id="guide835"
       orientation="-1,0"
       position="55.298252,-17.991139" />
    <sodipodi:guide
       inkscape:color="rgb(245,121,0)"
       inkscape:locked="false"
       inkscape:label=""
       id="guide839"
       orientation="-1,0"
       position="31.485419,-17.991139" />
    <sodipodi:guide
       id="guide841"
       orientation="1,0"
       position="68.527253,-15.345309" />
    <sodipodi:guide
       inkscape:color="rgb(245,121,0)"
       inkscape:locked="false"
       inkscape:label=""
       id="guide843"
       orientation="-1,0"
       position="71.173253,-2.1161392" />
    <sodipodi:guide
       inkscape:color="rgb(245,121,0)"
       inkscape:locked="false"
       inkscape:label=""
       id="guide847"
       orientation="-1,0"
       position="92.339254,-7.4078093" />
    <sodipodi:guide
       inkscape:color="rgb(245,121,0)"
       inkscape:locked="false"
       inkscape:label=""
       id="guide849"
       orientation="-1,0"
       position="94.985254,8.4671879" />
    <sodipodi:guide
       inkscape:color="rgb(245,121,0)"
       inkscape:locked="false"
       inkscape:label=""
       id="guide851"
       orientation="0,1"
       position="10.31875,56.09169" />
    <sodipodi:guide
       inkscape:color="rgb(245,121,0)"
       inkscape:locked="false"
       inkscape:label=""
       id="guide853"
       orientation="0,1"
       position="10.31875,42.86269" />
    <sodipodi:guide
       inkscape:color="rgb(245,121,0)"
       inkscape:locked="false"
       inkscape:label=""
       id="guide855"
       orientation="0,1"
       position="8.2020834,21.431689" />
    <sodipodi:guide
       inkscape:color="rgb(245,121,0)"
       inkscape:locked="false"
       inkscape:label=""
       id="guide857"
       orientation="0,1"
       position="158.48543,11.113026" />
    <sodipodi:guide
       inkscape:color="rgb(245,121,0)"
       inkscape:locked="false"
       inkscape:label=""
       id="guide906"
       orientation="-1,0"
       position="116.15226,3.1755178" />
    <sodipodi:guide
       inkscape:color="rgb(245,121,0)"
       inkscape:locked="false"
       inkscape:label=""
       id="guide26703"
       orientation="-1,0"
       position="68.527253,-20.636979" />
    <sodipodi:guide
       inkscape:color="rgb(245,121,0)"
       inkscape:locked="false"
       inkscape:label=""
       id="guide26705"
       orientation="-1,0"
       position="52.652252,-7.4078093" />
    <sodipodi:guide
       id="guide26707"
       orientation="1,0"
       position="147.90209,-15.345308" />
    <sodipodi:guide
       id="guide26709"
       orientation="0,-1"
       position="5.0270833,66.675521" />
    <sodipodi:guide
       id="guide26711"
       orientation="0,-1"
       position="145.25626,0.52969279" />
    <sodipodi:guide
       inkscape:color="rgb(0,0,255)"
       inkscape:locked="false"
       inkscape:label=""
       id="guide26720"
       orientation="-1,0"
       position="-0.26458272,26.988019" />
    <sodipodi:guide
       id="guide26759"
       orientation="1,0"
       position="158.48543,-12.699474" />
    <sodipodi:guide
       id="guide26784"
       orientation="0,-1"
       position="42.068751,71.967201" />
  </sodipodi:namedview>
  <metadata
     id="metadata5">
    <rdf:RDF>
      <cc:Work
         rdf:about="">
        <dc:format>image/svg+xml</dc:format>
        <dc:type
           rdf:resource="http://purl.org/dc/dcmitype/StillImage" />
        <dc:title></dc:title>
      </cc:Work>
    </rdf:RDF>
  </metadata>
  <g
     id="layer1"
     inkscape:groupmode="layer"
     inkscape:label="Layer 1"
     transform="translate(-13.49375,-18.547512)">
    <g
       transform="translate(34.660416,26.722916)"
       id="g26693"
       style="fill:#d6e8fd;fill-opacity:1">
      <g
         id="g26687"
         style="fill:#d6e8fd;fill-opacity:1">
        <path
           inkscape:connector-curvature="0"
           transform="scale(0.26458333)"
           d="m 80,100 c -22.160001,0 -40,17.83999 -40,40 0,22.16001 17.839999,40 40,40 22.16,0 40,-17.83999 40,-40 0,-22.16001 -17.84,-40 -40,-40 z m 0,20 c 11.080003,0 20,8.92 20,20 0,11.08 -8.919997,20 -20,20 -11.079999,0 -20,-8.92 -20,-20 0,-11.08 8.920001,-20 20,-20 z"
           style="fill:#d6e8fd;fill-opacity:1;stroke-width:3.528;stroke-linecap:round;stroke-linejoin:round;stroke-opacity:0.690196;stop-color:#000000"
           id="rect861" />
        <rect
           ry="2.3812504"
           y="13.229167"
           x="10.583333"
           height="23.812502"
           width="5.2916675"
           id="rect863"
           style="fill:#d6e8fd;fill-opacity:1;stroke-width:0.990074;stroke-linecap:round;stroke-linejoin:round;stroke-opacity:0.690196;stop-color:#000000" />
      </g>
    </g>
    <path
       sodipodi:nodetypes="sssssscsscss"
       inkscape:connector-curvature="0"
       d="m 71.602864,39.952083 c -1.410825,0 -2.546615,1.135789 -2.546615,2.546614 v 24.010938 c 0,4.252092 4.755661,7.686764 7.9375,7.838281 l 2.778125,0.132291 c 1.46413,0.06972 2.513542,-1.444627 2.513542,-2.910416 0,-1.465789 -2.38125,-2.38125 -2.38125,-2.38125 L 77.71567,69.056249 c -1.583142,-0.0957 -3.479411,-1.885968 -3.460255,-3.534669 0.03404,-2.929676 0.357084,-16.105543 0.357084,-23.022883 0,-1.410825 -1.13579,-2.546614 -2.546614,-2.546614 z"
       style="fill:#d7e8fd;fill-opacity:1;stroke-width:0.971328;stroke-linecap:round;stroke-linejoin:round;stroke-opacity:0.690196;stop-color:#000000"
       id="rect865" />
    <path
       inkscape:connector-curvature="0"
       d="m 95.514582,52.916666 c -5.863167,0 -10.583333,4.720166 -10.583333,10.583333 0,5.863169 4.720166,10.583333 10.583333,10.583333 5.863168,0 10.583328,-4.720164 10.583328,-10.583333 0,-5.863167 -4.72016,-10.583333 -10.583328,-10.583333 z m 0,5.291666 c 2.931583,0 5.291668,2.360084 5.291668,5.291667 0,2.931583 -2.360085,5.291666 -5.291668,5.291666 -2.931583,0 -5.291667,-2.360083 -5.291667,-5.291666 0,-2.931583 2.360084,-5.291667 5.291667,-5.291667 z"
       style="fill:#d7e8fd;fill-opacity:1;stroke-width:0.93345;stroke-linecap:round;stroke-linejoin:round;stroke-opacity:0.690196;stop-color:#000000"
       id="rect879" />
    <path
       sodipodi:nodetypes="ssscsssssssccssssss"
       inkscape:connector-curvature="0"
       d="m 119.32708,52.916666 c -5.86317,0 -10.58333,4.720166 -10.58333,10.583333 0,5.863166 4.72016,10.583333 10.58333,10.583333 1.93099,0 3.73642,-0.514591 5.29167,-1.410766 v 3.274219 c 0,1.540674 -1.5594,3.428214 -3.10007,3.428214 h -4.83743 c -1.46579,0 -2.64584,1.180044 -2.64584,2.645833 0,1.465789 1.18005,2.645833 2.64584,2.645833 h 5.29166 c 3.20105,0 7.9375,-4.690597 7.9375,-7.975224 V 68.03564 c 0,0 -0.01,-2.926564 0,-4.535641 0,-5.863167 -4.72016,-10.583333 -10.58333,-10.583333 z m 0,5.291666 c 2.93158,0 5.29167,2.360084 5.29167,5.291667 0,2.931583 -2.36009,5.291666 -5.29167,5.291666 -2.93158,0 -5.29167,-2.360083 -5.29167,-5.291666 0,-2.931583 2.36009,-5.291667 5.29167,-5.291667 z"
       style="fill:#d7e8fd;fill-opacity:1;stroke-width:0.93345;stroke-linecap:round;stroke-linejoin:round;stroke-opacity:0.690196;stop-color:#000000"
       id="rect881" />
    <g
       id="g159118"
       style="fill:#d7e8fd;fill-opacity:1">
      <path
         sodipodi:nodetypes="cssszcssscczccccc"
         inkscape:connector-curvature="0"
         transform="scale(0.26458333)"
         d="M 171.50586,90.837891 C 104.80216,91.647315 51,168.37738 51,236 c 0,69.804 56.196,126 126,126 h 346 c 46.81663,0 66.10841,10e-4 85.2168,0.002 19.1084,10e-4 25.78321,-12.002 26.4375,-25 C 623.99999,350 580.00001,350 513,350 H 186 C 122.29,350 71,298.71 71,235 71,171.29 123.42819,96.806027 187,101 l 42,0.33008 c 0,0 -33.63899,-9.304433 -37,-9.462892 -3.36101,-0.158459 -14.1619,-1.097176 -20.49414,-1.029297 z M 618.75,200.00195 c 0.0922,0.17104 0.17853,0.34419 0.26953,0.51563 2.08491,-0.33271 4.22186,-0.51153 6.40235,-0.51563 z"
         style="fill:#d7e8fd;fill-opacity:1;stroke-width:9.74691;stroke-linecap:round;stroke-linejoin:round;stroke-opacity:0.690196;stop-color:#000000"
         id="rect26713" />
      <rect
         ry="3.7947907"
         y="18.547512"
         x="57.01973"
         height="7.5895815"
         width="7.5899143"
         id="rect26782"
         style="fill:#d7e8fd;fill-opacity:1;stroke-width:0.502069;stroke-linecap:round;stroke-linejoin:round;stroke-opacity:0.690196;stop-color:#000000" />
    </g>
  </g>
</svg>
