<?xml version="1.0" encoding="UTF-8" standalone="no"?>
<svg
   xmlns:dc="http://purl.org/dc/elements/1.1/"
   xmlns:cc="http://creativecommons.org/ns#"
   xmlns:rdf="http://www.w3.org/1999/02/22-rdf-syntax-ns#"
   xmlns:svg="http://www.w3.org/2000/svg"
   xmlns="http://www.w3.org/2000/svg"
   xmlns:sodipodi="http://sodipodi.sourceforge.net/DTD/sodipodi-0.dtd"
   xmlns:inkscape="http://www.inkscape.org/namespaces/inkscape"
   inkscape:export-ydpi="39.239555"
   inkscape:export-xdpi="39.239555"
   inkscape:export-filename="/Users/cfalguiere/Documents/2021-07/git-repos/www.bulles-de-code.fr/assets/images/landpage/text-talks.png"
   sodipodi:docname="text-talks.svg"
   inkscape:version="1.0rc1 (09960d6, 2020-04-09)"
   id="svg8"
   version="1.1"
   viewBox="0 0 164.26179 45.311426"
   height="171.25577"
   width="620.83197">
  <defs
     id="defs2" />
  <sodipodi:namedview
     inkscape:object-nodes="false"
     inkscape:window-maximized="0"
     inkscape:window-y="38"
     inkscape:window-x="211"
     inkscape:window-height="924"
     inkscape:window-width="1575"
     inkscape:snap-grids="true"
     inkscape:snap-bbox="false"
     inkscape:guide-bbox="true"
     showguides="true"
     inkscape:pagecheckerboard="false"
     showgrid="true"
     inkscape:document-rotation="0"
     inkscape:current-layer="layer9"
     inkscape:document-units="mm"
     inkscape:cy="129.34211"
     inkscape:cx="299.0995"
     inkscape:zoom="1"
     inkscape:pageshadow="2"
     inkscape:pageopacity="1"
     borderopacity="1.0"
     bordercolor="#666666"
     pagecolor="#1d1d1d"
     id="base"
     fit-margin-top="0"
     fit-margin-left="0"
     fit-margin-right="0"
     fit-margin-bottom="0"
     units="px"
     inkscape:snap-global="false">
    <inkscape:grid
       id="grid833"
       type="xygrid"
       originx="-13.811011"
       originy="-34.590673"
       empcolor="#c6ff3f"
       empopacity="0.25098039"
       color="#f3ff65"
       opacity="0.1254902" />
    <sodipodi:guide
       inkscape:color="rgb(245,121,0)"
       inkscape:locked="false"
       inkscape:label=""
       id="guide835"
       orientation="-1,0"
       position="46.676813,43.208191" />
    <sodipodi:guide
       inkscape:color="rgb(245,121,0)"
       inkscape:locked="false"
       inkscape:label=""
       id="guide839"
       orientation="-1,0"
       position="30.956251,32.34684" />
    <sodipodi:guide
       id="guide841"
       orientation="1,0"
       position="68.209994,-31.222952" />
    <sodipodi:guide
       inkscape:color="rgb(245,121,0)"
       inkscape:locked="false"
       inkscape:label=""
       id="guide843"
       orientation="-1,0"
       position="70.855994,-17.993782" />
    <sodipodi:guide
       inkscape:color="rgb(245,121,0)"
       inkscape:locked="false"
       inkscape:label=""
       id="guide847"
       orientation="-1,0"
       position="84.084827,-7.41045" />
    <sodipodi:guide
       inkscape:color="rgb(245,121,0)"
       inkscape:locked="false"
       inkscape:label=""
       id="guide849"
       orientation="-1,0"
       position="86.730661,33.507142" />
    <sodipodi:guide
       inkscape:color="rgb(245,121,0)"
       inkscape:locked="false"
       inkscape:label=""
       id="guide851"
       orientation="0,1"
       position="10.001491,40.214045" />
    <sodipodi:guide
       inkscape:color="rgb(245,121,0)"
       inkscape:locked="false"
       inkscape:label=""
       id="guide853"
       orientation="0,1"
       position="-41.164858,26.539441" />
    <sodipodi:guide
       inkscape:color="rgb(245,121,0)"
       inkscape:locked="false"
       inkscape:label=""
       id="guide857"
       orientation="0,1"
       position="142.33786,-4.687763" />
    <sodipodi:guide
       inkscape:color="rgb(245,121,0)"
       inkscape:locked="false"
       inkscape:label=""
       id="guide906"
       orientation="-1,0"
       position="108.00708,18.2306" />
    <sodipodi:guide
       inkscape:color="rgb(0,0,255)"
       inkscape:locked="false"
       inkscape:label=""
       id="guide26677"
       orientation="0.70710678,0.70710678"
       position="25.876492,-49.743783" />
    <sodipodi:guide
       inkscape:color="rgb(245,121,0)"
       inkscape:locked="false"
       inkscape:label=""
       id="guide26703"
       orientation="-1,0"
       position="68.209994,-36.514623" />
    <sodipodi:guide
       inkscape:color="rgb(245,121,0)"
       inkscape:locked="false"
       inkscape:label=""
       id="guide26705"
       orientation="-1,0"
       position="33.337501,22.821839" />
    <sodipodi:guide
       id="guide26707"
       orientation="-1,0"
       position="163.45983,-25.93128"
       inkscape:label=""
       inkscape:locked="false"
       inkscape:color="rgb(245,121,0)" />
    <sodipodi:guide
       id="guide26709"
       orientation="0,-1"
       position="4.7098236,50.797877" />
    <sodipodi:guide
       id="guide26711"
       orientation="0,-1"
       position="144.939,-15.34795" />
    <sodipodi:guide
       inkscape:color="rgb(0,0,255)"
       inkscape:locked="false"
       inkscape:label=""
       id="guide26720"
       orientation="-1,0"
       position="-0.58184185,11.110376" />
    <sodipodi:guide
       id="guide26759"
       orientation="1,0"
       position="158.16817,-28.577117" />
    <sodipodi:guide
       id="guide26784"
       orientation="0,-1"
       position="41.751492,56.089557" />
    <sodipodi:guide
       position="110.54316,5.8187168"
       orientation="-1,0"
       id="guide54688"
       inkscape:label=""
       inkscape:locked="false"
       inkscape:color="rgb(245,121,0)" />
    <sodipodi:guide
       position="160.95318,17.762878"
       orientation="1,0"
       id="guide54690" />
    <sodipodi:guide
       position="131.70983,-2.1187831"
       orientation="-1,0"
       id="guide54692"
       inkscape:label=""
       inkscape:locked="false"
       inkscape:color="rgb(245,121,0)" />
    <sodipodi:guide
       position="131.70983,-2.1187831"
       orientation="-1,0"
       id="guide57260" />
    <sodipodi:guide
       inkscape:color="rgb(245,121,0)"
       inkscape:locked="false"
       inkscape:label=""
       id="guide115258"
       orientation="-1,0"
       position="131.70974,33.83787" />
  </sodipodi:namedview>
  <metadata
     id="metadata5">
    <rdf:RDF>
      <cc:Work
         rdf:about="">
        <dc:format>image/svg+xml</dc:format>
        <dc:type
           rdf:resource="http://purl.org/dc/dcmitype/StillImage" />
        <dc:title />
      </cc:Work>
    </rdf:RDF>
  </metadata>
  <g
     inkscape:groupmode="layer"
     id="layer9"
     inkscape:label="title-bubble"
     transform="translate(-0.31725964,-16.043114)">
    <path
       sodipodi:type="star"
       style="display:inline;fill:#4472c2;fill-opacity:1;stroke-width:0.536791;stroke-linecap:round;stroke-linejoin:round;stop-color:#000000"
       id="path175078"
       sodipodi:sides="3"
       sodipodi:cx="26.064564"
       sodipodi:cy="26.942572"
       sodipodi:r1="19.079374"
       sodipodi:r2="13.226732"
       sodipodi:arg1="0.98279372"
       sodipodi:arg2="1.8147663"
       inkscape:flatsided="false"
       inkscape:rounded="0.35"
       inkscape:randomized="0"
       d="m 36.647896,42.817571 c -3.429019,3.553817 -9.351574,-0.851 -13.778341,-3.039955 C 16.707295,36.730492 8.9223619,34.777887 7.024745,28.170507 5.6615587,23.42398 12.437519,20.497306 16.546594,17.758091 22.266611,13.944979 27.850083,8.1793318 34.52105,9.8396372 c 4.792206,1.1927098 3.9388,8.5242008 4.256493,13.4523708 0.442242,6.860236 2.643704,14.578488 -2.129647,19.525563 z"
       inkscape:transform-center-x="-56.472573"
       inkscape:transform-center-y="-26.776424"
       transform="matrix(1.122755,-0.64507053,0.57310066,1.1857182,-9.7588397,26.70437)" />
    <path
       style="display:inline;fill:#d6e8fd;fill-opacity:1;stroke:#4472c2;stroke-width:0;stroke-linecap:round;stroke-linejoin:round;stroke-miterlimit:4.7;stop-color:#000000"
       id="path909"
       d="m 147.47385,45.7742 c -1.13028,0.263253 -2.77367,0.37402 -3.39085,0.789758 -0.33333,0.224515 1.48324,-0.02457 2.22002,-0.0011 0.82599,0.02632 1.6394,0.089 2.44945,0.149886 0.99931,0.07511 1.96456,0.202903 2.97519,0.25783 3.37951,0.183674 5.81521,0.140861 9.26859,0.149275 0,0 3.93702,-0.969332 3.93702,-0.969332 v 0 c -3.3365,-0.02182 -5.61136,0.01784 -8.84924,-0.195735 -9.5252,-0.628281 2.9236,-0.0073 -5.3387,-0.476526 -0.73441,-0.04171 -1.518,-0.164351 -2.22104,-0.081 -2.27029,0.269153 -4.29036,0.738189 -6.43553,1.107283 0,0 5.38509,-0.730325 5.38509,-0.730325 z"
       inkscape:connector-curvature="0" />
    <path
       inkscape:connector-curvature="0"
       d="m 143.76968,49.297374 c -1.13028,0.263253 -2.77367,0.37402 -3.39085,0.789758 -0.33333,0.224515 1.48324,-0.02457 2.22002,-0.0011 0.82599,0.02632 1.6394,0.089 2.44945,0.149886 0.99931,0.07511 1.96456,0.202904 2.97519,0.257831 3.37951,0.183673 5.81521,0.140862 9.26859,0.149275 0,0 3.93702,-0.969333 3.93702,-0.969333 v 0 c -3.3365,-0.02182 -5.61136,0.01784 -8.84924,-0.195735 -9.5252,-0.628282 2.9236,-0.0073 -5.3387,-0.476527 -0.73441,-0.04171 -1.518,-0.16435 -2.22104,-0.081 -2.27029,0.269152 -4.29036,0.738188 -6.43553,1.107282 0,0 5.38509,-0.730324 5.38509,-0.730324 z"
       id="path909-9"
       style="display:inline;fill:#d6e8fd;fill-opacity:1;stroke:#4472c2;stroke-width:0;stroke-linecap:round;stroke-linejoin:round;stroke-miterlimit:4.7;stop-color:#000000" />
    <path
       inkscape:connector-curvature="0"
       d="m 145.62177,47.535787 c -1.13028,0.263253 -2.77367,0.37402 -3.39085,0.789758 -0.33333,0.224515 1.48324,-0.02457 2.22002,-0.0011 0.82599,0.02632 1.6394,0.089 2.44945,0.149885 0.99931,0.07511 1.96456,0.202904 2.97519,0.257831 3.37951,0.183673 5.81521,0.140862 9.26859,0.149275 0,0 3.93702,-0.969332 3.93702,-0.969332 v 0 c -3.3365,-0.02182 -5.61136,0.01784 -8.84924,-0.195736 -9.5252,-0.628281 2.9236,-0.0073 -5.3387,-0.476526 -0.73441,-0.04171 -1.518,-0.164351 -2.22104,-0.081 -2.27029,0.269152 -4.29036,0.738188 -6.43553,1.107282 0,0 5.38509,-0.730324 5.38509,-0.730324 z"
       id="path909-0"
       style="display:inline;fill:#d7e8fd;fill-opacity:1;stroke:#4472c2;stroke-width:0;stroke-linecap:round;stroke-linejoin:round;stroke-miterlimit:4.7;stop-color:#000000" />
    <path
       style="display:inline;fill:#d7e8fd;fill-opacity:1;stroke:#4472c2;stroke-width:0;stroke-linecap:round;stroke-linejoin:round;stroke-miterlimit:4.7;stop-color:#000000"
       id="path932"
       sodipodi:type="arc"
       sodipodi:cx="150.82681"
       sodipodi:cy="42.739048"
       sodipodi:rx="1.5"
       sodipodi:ry="1.5"
       sodipodi:start="0.057975823"
       sodipodi:end="6.2253451"
       sodipodi:arc-type="slice"
       d="m 152.32429,42.825963 a 1.5,1.5 0 0 1 -1.541,1.412453 1.5,1.5 0 0 1 -1.45648,-1.49947 1.5,1.5 0 0 1 1.45668,-1.499272 1.5,1.5 0 0 1 1.54081,1.412662 l -1.49749,0.08671 z" />
    <g
       transform="rotate(-14.898576,38.291438,31.778474)"
       id="g2305">
      <path
         d="m 16.332762,49.035943 a 1.5,1.5 0 0 1 -1.541006,1.412453 1.5,1.5 0 0 1 -1.456474,-1.49947 1.5,1.5 0 0 1 1.456677,-1.499272 1.5,1.5 0 0 1 1.540815,1.412662 l -1.497492,0.08671 z"
         style="display:inline;fill:#d7e8fd;fill-opacity:1;stroke:#4472c2;stroke-width:0;stroke-linecap:round;stroke-linejoin:round;stroke-miterlimit:4.7;stop-color:#000000"
         id="path932-7"
         sodipodi:type="arc"
         sodipodi:cx="14.835282"
         sodipodi:cy="48.949028"
         sodipodi:rx="1.5"
         sodipodi:ry="1.5"
         sodipodi:start="0.057975823"
         sodipodi:end="6.2253451"
         sodipodi:arc-type="slice"
         transform="rotate(0.54299698)" />
      <path
         inkscape:connector-curvature="0"
         d="m 14.282586,46.118214 c -0.460931,-1.299266 0.134352,-3.034394 0.632761,-4.199749 1.096851,-2.5646 1.909771,-3.584991 3.439178,-5.986589 3.887002,-5.388786 8.18995,-10.346668 12.688134,-15.023518 0.570368,-0.591069 1.155629,-1.160928 1.753396,-1.712321 0,0 -1.942586,0.778899 -1.942586,0.778899 v 0 c -0.513,0.532782 -1.019115,1.074683 -1.516156,1.628265 -4.255005,4.751927 -8.365373,9.690293 -12.242455,14.871475 -1.650028,2.464379 -2.537865,3.555848 -3.779683,6.189289 -0.626853,1.329324 -1.132686,2.758241 -1.007574,4.27483 0.01,0.120603 0.05663,0.231484 0.08494,0.347229 0,0 1.890047,-1.16781 1.890047,-1.16781 z"
         id="path885-5"
         style="display:inline;fill:#d6e8fd;fill-opacity:1;stroke:#4472c2;stroke-width:0;stroke-linecap:round;stroke-linejoin:round;stroke-miterlimit:4.7;stop-color:#000000" />
    </g>
  </g>
  <g
     id="layer1"
     inkscape:groupmode="layer"
     inkscape:label="Layer 1"
     transform="translate(-13.81101,-34.590626)">
    <path
       id="rect56003"
       style="fill:#d6e8fd;fill-opacity:1;stroke-width:2.4633;stroke-linecap:round;stroke-linejoin:round;stroke-opacity:0.690196;stop-color:#000000"
       d="m 195.5,129.64844 c -3.60101,0 -6.5,4.149 -6.5,7.75 0,3.601 2.89905,7.77058 6.5,7.75 0,0 37.625,-0.37536 41.25,0 2.875,1.37536 8,4.25071 7.75,7.83594 l -0.75,46.83007 c -0.0895,5.58616 2.595,10.08399 6.75,10.08399 4.155,0 8.216,-4.49721 8.25,-10.08399 L 259,158.73438 c 0.034,-5.58678 -0.1723,-6.21049 0,-11.83594 0.17229,-5.62545 -10.5098,-17.12854 -17,-17.25 -6.4902,-0.12146 -9.399,0 -13,0 z"
       transform="matrix(0.26458333,0,0,0.26458333,13.49375,18.547512)"
       inkscape:connector-curvature="0"
       sodipodi:nodetypes="sssccsssszzss" />
    <rect
       style="fill:#d6e8fd;fill-opacity:1;stroke-width:1.01916;stroke-linecap:round;stroke-linejoin:round;stroke-opacity:0.690196;stop-color:#000000"
       id="rect55943"
       width="3.8818541"
       height="34.395836"
       x="100.56241"
       y="39.6875"
       ry="2.6256366" />
    <rect
       transform="rotate(51.206067)"
       ry="1.8520836"
       y="-63.38887"
       x="112.64458"
       height="24.341669"
       width="3.7041671"
       id="rect55973"
       style="fill:#d6e8fd;fill-opacity:1;stroke-width:0.837503;stroke-linecap:round;stroke-linejoin:round;stroke-opacity:0.690196;stop-color:#000000" />
    <rect
       transform="matrix(0.75714604,-0.65324564,0.65783058,0.75316594,0,0)"
       ry="2.0122712"
       y="115.6484"
       x="40.774498"
       height="18.922709"
       width="4.0245423"
       id="rect55977"
       style="fill:#d6e8fd;fill-opacity:1;stroke-width:0.769692;stroke-linecap:round;stroke-linejoin:round;stroke-opacity:0.690196;stop-color:#000000" />
    <path
       id="rect865-6"
       style="fill:#d7e8fd;fill-opacity:1;stroke-width:0.975617;stroke-linecap:round;stroke-linejoin:round;stroke-opacity:0.690196;stop-color:#000000"
       d="m 86.669904,39.470408 c -0.01556,1.1e-5 -0.03256,0.0036 -0.04858,0.0047 -1.039596,0.04761 -1.865519,1.097076 -1.865519,2.396752 v 19.208647 c 0.03713,1.635633 0.01603,3.3269 0.01603,4.983156 0,4.268382 3.902601,8.001344 6.588228,7.868253 1.665782,-0.02716 3.246903,0.302813 4.799708,0.07906 0.998826,-0.08058 1.779217,-0.910357 1.779217,-1.93063 0,-1.073973 -0.864409,-1.938382 -1.938382,-1.938382 h -3.53105 c -2.472203,-0.310383 -3.733916,-3.356914 -3.795633,-4.937682 0.01193,-1.025586 -0.01185,-4.194334 -0.04082,-7.72046 v -15.61201 c 0,-1.276 -0.796399,-2.310707 -1.809192,-2.393136 -0.03889,-0.0063 -0.07559,-0.0078 -0.111622,-0.0072 -0.0061,-6.9e-5 -0.01199,-0.001 -0.0181,-0.001 -0.0024,0 -0.0048,5.02e-4 -0.0072,5.29e-4 -0.0055,3.44e-4 -0.0117,-10e-4 -0.01704,-5.29e-4 z"
       inkscape:connector-curvature="0"
       sodipodi:nodetypes="ccsccccsscccsccscc" />
    <g
       id="g115949"
       transform="rotate(5.6039207,51.643913,56.767485)">
      <path
         id="path115254"
         style="fill:#d7e8fd;fill-opacity:1;stroke-width:0.975617;stroke-linecap:round;stroke-linejoin:round;stroke-opacity:0.690196;stop-color:#000000"
         d="m 46.916258,39.470408 c -0.01556,1.1e-5 -0.03256,0.0036 -0.04858,0.0047 -1.039596,0.04761 -1.865519,1.097076 -1.865519,2.396752 v 19.208647 c 0.03713,1.635633 0.01603,3.3269 0.01603,4.983156 0,4.268382 3.902601,8.001344 6.588228,7.868253 1.665782,-0.02716 3.246903,0.302813 4.799708,0.07906 0.998826,-0.08058 1.779217,-0.910357 1.779217,-1.93063 0,-1.073973 -0.864409,-1.938382 -1.938382,-1.938382 h -3.53105 c -2.472203,-0.310383 -3.733916,-3.356914 -3.795633,-4.937682 0.01193,-1.025586 -0.01185,-4.194334 -0.04082,-7.72046 v -15.61201 c 0,-1.276 -0.796399,-2.310707 -1.809192,-2.393136 -0.03889,-0.0063 -0.07559,-0.0078 -0.111622,-0.0072 -0.0061,-6.9e-5 -0.01199,-0.001 -0.0181,-0.001 -0.0024,0 -0.0048,5.02e-4 -0.0072,5.29e-4 -0.0055,3.44e-4 -0.0117,-10e-4 -0.01704,-5.29e-4 z"
         inkscape:connector-curvature="0"
         sodipodi:nodetypes="ccsccccsscccsccscc" />
      <rect
         style="fill:#d7e8fd;fill-opacity:1;stroke-width:0.992946;stroke-linecap:round;stroke-linejoin:round;stroke-opacity:0.690196;stop-color:#000000"
         id="rect115256"
         width="11.443229"
         height="4.0348959"
         x="46.765106"
         y="48.842304"
         ry="2.0174479" />
    </g>
    <path
       sodipodi:nodetypes="csccccccsccsssccccscc"
       inkscape:connector-curvature="0"
       transform="matrix(0.26458333,0,0,0.26458333,13.49375,18.547512)"
       d="m 444.41602,130.10742 c -13.90666,0 -25.10157,11.19491 -25.10157,25.10156 0,5.35936 1.66807,10.31219 4.50782,14.38086 5.66369,7.81833 12.13269,10.16551 20.24023,10.19248 l 30.05273,-0.17685 c 4.39076,-0.56435 9.45747,4.38177 9.54493,7.77734 0,4.11324 -5.43182,7.42578 -9.54504,7.42578 -16.37272,0.0655 -32.29038,0.17132 -47.37684,0.35352 -4.11326,0 -7.42383,3.31059 -7.42383,7.42383 0,4.11324 3.31057,7.42383 7.42383,7.42383 15.7024,9.4e-4 32.52661,0.002 47.02344,0 13.90669,0 25.10156,-11.1949 25.10156,-25.10157 0,-5.35972 -3.57321,-10.87807 -7.68945,-14.73437 -4.11625,-3.85631 -11.86082,-5.2192 -17.41211,-5.41797 -5.5513,-0.19877 -29.3457,-0.35348 -29.3457,-0.35348 -6.28789,-0.0718 -10.1586,-5.96526 -10.25196,-9.54691 0,-4.11325 6.13915,-10.13372 10.25196,-10.07522 13.43017,0.19734 24.40221,0.34726 37.65429,0.5303 4.21075,0.0582 7.60157,-3.39039 7.60157,-7.60157 0,-4.21117 -3.39042,-7.60156 -7.60157,-7.60156 -12.78339,0 -24.39555,0 -37.65429,0 z"
       style="fill:#d6e8fd;fill-opacity:1;stroke-width:5.50091;stroke-linecap:round;stroke-linejoin:round;stroke-opacity:0.690196;stop-color:#000000"
       id="rect115286" />
    <path
       inkscape:connector-curvature="0"
       transform="matrix(0.26458333,0,0,0.26458333,13.49375,18.547512)"
       d="m 203.625,160 c -13.78075,0 -24.875,11.09425 -24.875,24.875 0,13.78075 11.09425,24.875 24.875,24.875 h 30.25 c 13.78075,0 24.875,-11.09425 24.875,-24.875 C 258.75,171.09425 247.65575,160 233.875,160 Z m 0,15 h 30 c 5.60925,0 10.125,4.51575 10.125,10.125 0,5.60925 -4.51575,10.125 -10.125,10.125 h -30 c -5.60925,0 -10.125,-4.51575 -10.125,-10.125 0,-5.60925 4.51575,-10.125 10.125,-10.125 z"
       style="fill:#d6e8fd;fill-opacity:1;stroke-width:4.43376;stroke-linecap:round;stroke-linejoin:round;stroke-opacity:0.690196;stop-color:#000000"
       id="rect115308" />
  </g>
</svg>
