<?xml version="1.0" encoding="UTF-8" standalone="no"?>
<svg
   xmlns:dc="http://purl.org/dc/elements/1.1/"
   xmlns:cc="http://creativecommons.org/ns#"
   xmlns:rdf="http://www.w3.org/1999/02/22-rdf-syntax-ns#"
   xmlns:svg="http://www.w3.org/2000/svg"
   xmlns="http://www.w3.org/2000/svg"
   xmlns:sodipodi="http://sodipodi.sourceforge.net/DTD/sodipodi-0.dtd"
   xmlns:inkscape="http://www.inkscape.org/namespaces/inkscape"
   sodipodi:docname="text-blog.svg"
   inkscape:version="1.0rc1 (09960d6, 2020-04-09)"
   id="svg8"
   version="1.1"
   viewBox="0 0 145.74113 52.74347"
   height="199.3454"
   width="550.83258">
  <defs
     id="defs2" />
  <sodipodi:namedview
     inkscape:object-nodes="false"
     inkscape:window-maximized="0"
     inkscape:window-y="104"
     inkscape:window-x="7"
     inkscape:window-height="924"
     inkscape:window-width="1575"
     inkscape:snap-grids="true"
     inkscape:snap-bbox="true"
     inkscape:guide-bbox="true"
     showguides="true"
     inkscape:pagecheckerboard="false"
     showgrid="true"
     inkscape:document-rotation="0"
     inkscape:current-layer="layer1"
     inkscape:document-units="mm"
     inkscape:cy="156.09942"
     inkscape:cx="424.36327"
     inkscape:zoom="0.70710678"
     inkscape:pageshadow="2"
     inkscape:pageopacity="1"
     borderopacity="1.0"
     bordercolor="#666666"
     pagecolor="#1d1d1d"
     id="base"
     fit-margin-top="0"
     fit-margin-left="0"
     fit-margin-right="0"
     fit-margin-bottom="0"
     units="px">
    <inkscape:grid
       id="grid833"
       type="xygrid"
       originx="-14.646112"
       originy="-31.923004" />
    <sodipodi:guide
       inkscape:color="rgb(245,121,0)"
       inkscape:locked="false"
       inkscape:label=""
       id="guide835"
       orientation="-1,0"
       position="54.145563,-31.750194" />
    <sodipodi:guide
       inkscape:color="rgb(245,121,0)"
       inkscape:locked="false"
       inkscape:label=""
       id="guide839"
       orientation="-1,0"
       position="32.978892,-0.00019322515" />
    <sodipodi:guide
       id="guide841"
       orientation="1,0"
       position="67.374901,-26.458528" />
    <sodipodi:guide
       inkscape:color="rgb(245,121,0)"
       inkscape:locked="false"
       inkscape:label=""
       id="guide843"
       orientation="-1,0"
       position="70.020901,-13.229358" />
    <sodipodi:guide
       inkscape:color="rgb(245,121,0)"
       inkscape:locked="false"
       inkscape:label=""
       id="guide847"
       orientation="-1,0"
       position="91.186896,-18.521028" />
    <sodipodi:guide
       inkscape:color="rgb(245,121,0)"
       inkscape:locked="false"
       inkscape:label=""
       id="guide849"
       orientation="-1,0"
       position="91.187226,5.2914738" />
    <sodipodi:guide
       inkscape:color="rgb(245,121,0)"
       inkscape:locked="false"
       inkscape:label=""
       id="guide853"
       orientation="0,1"
       position="-41.104444,31.749808" />
    <sodipodi:guide
       inkscape:color="rgb(245,121,0)"
       inkscape:locked="false"
       inkscape:label=""
       id="guide855"
       orientation="0,1"
       position="7.0497319,10.31847" />
    <sodipodi:guide
       inkscape:color="rgb(245,121,0)"
       inkscape:locked="false"
       inkscape:label=""
       id="guide857"
       orientation="0,1"
       position="157.33308,-0.00019322515" />
    <sodipodi:guide
       inkscape:color="rgb(245,121,0)"
       inkscape:locked="false"
       inkscape:label=""
       id="guide906"
       orientation="-1,0"
       position="114.99991,-7.9377011" />
    <sodipodi:guide
       inkscape:color="rgb(245,121,0)"
       inkscape:locked="false"
       inkscape:label=""
       id="guide26703"
       orientation="-1,0"
       position="67.374901,-31.750198" />
    <sodipodi:guide
       inkscape:color="rgb(245,121,0)"
       inkscape:locked="false"
       inkscape:label=""
       id="guide26705"
       orientation="-1,0"
       position="51.4999,-18.521028" />
    <sodipodi:guide
       id="guide26707"
       orientation="1,0"
       position="146.74974,-26.458527" />
    <sodipodi:guide
       id="guide26709"
       orientation="0,-1"
       position="3.8747319,55.562302" />
    <sodipodi:guide
       id="guide26711"
       orientation="0,-1"
       position="144.10391,-10.583526" />
    <sodipodi:guide
       inkscape:color="rgb(0,0,255)"
       inkscape:locked="false"
       inkscape:label=""
       id="guide26720"
       orientation="-1,0"
       position="-1.4169346,15.8748" />
    <sodipodi:guide
       id="guide26759"
       orientation="1,0"
       position="157.33308,-23.812693" />
    <sodipodi:guide
       id="guide26784"
       orientation="0,-1"
       position="40.916399,60.853982" />
  </sodipodi:namedview>
  <metadata
     id="metadata5">
    <rdf:RDF>
      <cc:Work
         rdf:about="">
        <dc:format>image/svg+xml</dc:format>
        <dc:type
           rdf:resource="http://purl.org/dc/dcmitype/StillImage" />
        <dc:title />
      </cc:Work>
    </rdf:RDF>
  </metadata>
  <g
     inkscape:groupmode="layer"
     id="layer8"
     inkscape:label="back-bubble"
     style="display:inline"
     transform="translate(-1.152352,-13.375492)">
    <path
       sodipodi:type="star"
       style="fill:#4472c2;stroke-width:0.495511;stroke-linecap:round;stroke-linejoin:round;stop-color:#000000;fill-opacity:1"
       id="path175078"
       sodipodi:sides="3"
       sodipodi:cx="26.064564"
       sodipodi:cy="26.942572"
       sodipodi:r1="19.079374"
       sodipodi:r2="13.226732"
       sodipodi:arg1="0.98279372"
       sodipodi:arg2="1.8147663"
       inkscape:flatsided="false"
       inkscape:rounded="0.35"
       inkscape:randomized="0"
       d="m 36.647896,42.817571 c -3.429019,3.553817 -9.351574,-0.851 -13.778341,-3.039955 C 16.707295,36.730492 8.9223619,34.777887 7.024745,28.170507 5.6615587,23.42398 12.437519,20.497306 16.546594,17.758091 22.266611,13.944979 27.850083,8.1793318 34.52105,9.8396372 c 4.792206,1.1927098 3.9388,8.5242008 4.256493,13.4523708 0.442242,6.860236 2.643704,14.578488 -2.129647,19.525563 z"
       inkscape:transform-center-x="-62.236919"
       inkscape:transform-center-y="-10.961536"
       transform="matrix(1.3341915,-0.36878794,0.2691557,1.4217667,-7.8137029,12.117126)" />
  </g>
  <g
     id="layer1"
     inkscape:groupmode="layer"
     inkscape:label="Layer 1"
     transform="translate(-14.646102,-31.923004)"
     style="display:inline">
    <g
       id="g175082"
       transform="rotate(13.135556,56.146096,57.201365)">
      <path
         id="rect861"
         style="fill:#d6e8fd;fill-opacity:1;stroke-width:3.53901;stroke-linecap:round;stroke-linejoin:round;stroke-opacity:0.690196;stop-color:#000000"
         d="m 159.39844,129.83789 c -22.2985,0 -40.60547,17.83999 -40.60547,40 0,22.16001 17.9515,41.06055 40.25,41.06055 22.2985,0 40.25,-18.90054 40.25,-41.06055 0,-22.16001 -17.59603,-40 -39.89453,-40 z m -0.52344,14.81055 c 13.91925,0 25.125,11.31725 25.125,25.375 0,14.05775 -11.20575,25.375 -25.125,25.375 -13.91925,0 -25.125,-11.31725 -25.125,-25.375 0,-14.05775 11.20575,-25.375 25.125,-25.375 z"
         transform="matrix(0.26458333,0,0,0.26458333,13.49375,18.547512)"
         inkscape:connector-curvature="0" />
      <rect
         style="fill:#d6e8fd;fill-opacity:1;stroke-width:0.851;stroke-linecap:round;stroke-linejoin:round;stroke-opacity:0.690196;stop-color:#000000"
         id="rect863"
         width="3.8771536"
         height="24.010939"
         x="44.963116"
         y="39.753647"
         ry="2.4010942" />
    </g>
    <path
       sodipodi:nodetypes="ccsccccsscccsccscc"
       inkscape:connector-curvature="0"
       d="m 216.42383,80.148438 c -0.0588,4e-5 -0.12306,0.01364 -0.1836,0.01758 -3.92918,0.179944 -7.05078,4.146431 -7.05078,9.058593 v 72.599609 c 0.14035,6.18192 0.0606,12.57411 0.0606,18.83398 0,16.13247 14.74999,30.2413 24.90039,29.73828 6.29587,-0.10266 12.27176,1.14449 18.14063,0.29883 3.77509,-0.30456 6.7246,-3.44072 6.7246,-7.29687 0,-4.05911 -3.26706,-7.32617 -7.32617,-7.32617 h -13.3457 c -9.34376,-1.1731 -14.11244,-12.68755 -14.3457,-18.66211 0.0451,-3.87623 -0.0448,-15.8526 -0.1543,-29.17969 V 89.224609 c 0,-4.822676 -3.01001,-8.733381 -6.83789,-9.044921 -0.14697,-0.02369 -0.28568,-0.02961 -0.42188,-0.02734 -0.023,-2.61e-4 -0.0453,-0.0039 -0.0684,-0.0039 -0.009,0 -0.0181,0.0019 -0.0273,0.002 -0.0207,0.0013 -0.0442,-0.0039 -0.0644,-0.002 z"
       style="fill:#d7e8fd;fill-opacity:1;stroke-width:3.68737;stroke-linecap:round;stroke-linejoin:round;stroke-opacity:0.690196;stop-color:#000000"
       id="rect865"
       transform="matrix(0.26458333,0,0,0.26458333,13.49375,18.547512)" />
    <path
       inkscape:connector-curvature="0"
       transform="matrix(0.26458333,0,0,0.26458333,13.49375,18.547512)"
       d="m 309.25,129.89844 c -22.0215,0 -39.75,18.063 -39.75,40.5 0,22.43701 17.7285,40.5 39.75,40.5 22.02151,0 39.75,-18.06299 39.75,-40.5 0,-22.437 -17.72849,-40.5 -39.75,-40.5 z m -0.625,15 c 13.78075,0 24.875,11.14999 24.875,25 0,13.85 -11.09425,25 -24.875,25 -13.78075,0 -24.875,-11.15 -24.875,-25 0,-13.85001 11.09425,-25 24.875,-25 z"
       style="fill:#d7e8fd;fill-opacity:1;stroke-width:3.53887;stroke-linecap:round;stroke-linejoin:round;stroke-opacity:0.690196;stop-color:#000000"
       id="rect879" />
    <g
       id="g175088">
      <path
         id="rect881"
         style="fill:#d7e8fd;fill-opacity:1;stroke-width:3.528;stroke-linecap:round;stroke-linejoin:round;stroke-opacity:0.690196;stop-color:#000000"
         d="m 399,129.89844 c -22.16001,0 -40,17.84 -40,40 0,22.15999 17.83999,40 40,40 7.29823,0 18.87189,-8.94492 24.75,-12.33203 l 0.25,19.875 c 0.12525,9.95759 -12.75001,17.45703 -16.9668,17.45703 H 389.5 c -5.53999,0 -10.25,1.96001 -10.25,7.5 0,5.53999 4.21001,7.5 9.75,7.5 h 22.25 c 12.09846,0 28.09344,-17.22859 28,-29.64258 L 439,187.04102 c 0,0 -0.0378,-11.06103 0,-17.14258 0,-22.16 -17.83999,-40 -40,-40 z m -0.125,15 c 13.78076,0 24.875,11.14999 24.875,25 0,13.85 -11.09424,25 -24.875,25 -13.78072,0 -24.875,-11.15 -24.875,-25 0,-13.85001 11.09428,-25 24.875,-25 z"
         transform="matrix(0.26458333,0,0,0.26458333,13.49375,18.547512)"
         inkscape:connector-curvature="0"
         sodipodi:nodetypes="ssscsssssssccssssss" />
      <path
         d="m 119.0625,52.916474 c -5.82652,0 -10.51719,4.779169 -10.51719,10.715625 0,5.936459 4.69067,10.715625 10.51719,10.715625 5.82652,0 10.51719,-4.779166 10.51719,-10.715625 0,-5.936456 -4.69067,-10.715625 -10.51719,-10.715625 z m -0.16537,3.96875 c 3.64616,0 6.58151,2.950101 6.58151,6.614583 0,3.664479 -2.93535,6.614583 -6.58151,6.614583 -3.64615,0 -6.58151,-2.950104 -6.58151,-6.614583 0,-3.664482 2.93536,-6.614583 6.58151,-6.614583 z"
         style="fill:#d7e8fd;fill-opacity:1;stroke-width:0.936326;stroke-linecap:round;stroke-linejoin:round;stroke-opacity:0.690196;stop-color:#000000"
         id="path114599"
         inkscape:connector-curvature="0" />
    </g>
    <rect
       style="fill:#d7e8fd;fill-opacity:1;stroke-width:0.700089;stroke-linecap:round;stroke-linejoin:round;stop-color:#000000"
       id="rect175093"
       width="23.812492"
       height="1.5498931"
       x="14.699286"
       y="65.80014"
       ry="0.77494657" />
    <rect
       ry="0.77494657"
       y="60.508472"
       x="14.646102"
       height="1.5498931"
       width="23.812492"
       id="rect175093-6"
       style="display:inline;fill:#d7e8fd;fill-opacity:1;stroke-width:0.70009;stroke-linecap:round;stroke-linejoin:round;stop-color:#000000" />
    <rect
       ry="0.77494657"
       y="63.127712"
       x="14.646102"
       height="1.5498931"
       width="23.812492"
       id="rect175093-0"
       style="display:inline;fill:#d7e8fd;fill-opacity:1;stroke-width:0.70009;stroke-linecap:round;stroke-linejoin:round;stop-color:#000000" />
    <rect
       ry="0.77494657"
       y="65.370888"
       x="136.57474"
       height="1.5498931"
       width="23.812492"
       id="rect175093-9"
       style="display:inline;fill:#d7e8fd;fill-opacity:1;stroke-width:0.70009;stroke-linecap:round;stroke-linejoin:round;stop-color:#000000" />
    <rect
       style="display:inline;fill:#d7e8fd;fill-opacity:1;stroke-width:0.70009;stroke-linecap:round;stroke-linejoin:round;stop-color:#000000"
       id="rect175093-6-6"
       width="23.812492"
       height="1.5498931"
       x="136.52155"
       y="60.079216"
       ry="0.77494657" />
    <rect
       style="display:inline;fill:#d7e8fd;fill-opacity:1;stroke-width:0.70009;stroke-linecap:round;stroke-linejoin:round;stop-color:#000000"
       id="rect175093-0-1"
       width="23.812492"
       height="1.5498931"
       x="136.52155"
       y="62.698456"
       ry="0.77494657" />
    <rect
       style="fill:#ddfef6;fill-opacity:1;stroke-width:0.700087;stroke-linecap:round;stroke-linejoin:round;stop-color:#000000"
       id="rect175137"
       width="5"
       height="5"
       x="30.942789"
       y="54.096161"
       ry="2.6458333" />
    <rect
       ry="2.6458333"
       y="53.828354"
       x="140.04948"
       height="5"
       width="5"
       id="rect175137-7"
       style="display:inline;fill:#ddfef6;fill-opacity:1;stroke-width:0.700087;stroke-linecap:round;stroke-linejoin:round;stop-color:#000000" />
  </g>
</svg>
