<?xml version="1.0" encoding="UTF-8" standalone="no"?>
<svg
   xmlns:dc="http://purl.org/dc/elements/1.1/"
   xmlns:cc="http://creativecommons.org/ns#"
   xmlns:rdf="http://www.w3.org/1999/02/22-rdf-syntax-ns#"
   xmlns:svg="http://www.w3.org/2000/svg"
   xmlns="http://www.w3.org/2000/svg"
   xmlns:sodipodi="http://sodipodi.sourceforge.net/DTD/sodipodi-0.dtd"
   xmlns:inkscape="http://www.inkscape.org/namespaces/inkscape"
   width="769.6543"
   height="291.90115"
   viewBox="0 0 203.63771 77.232181"
   version="1.1"
   id="svg8"
   inkscape:version="1.0rc1 (09960d6, 2020-04-09)"
   sodipodi:docname="text-photos.svg">
  <defs
     id="defs2" />
  <sodipodi:namedview
     units="px"
     fit-margin-bottom="0"
     fit-margin-right="0"
     fit-margin-left="0"
     fit-margin-top="0"
     id="base"
     pagecolor="#1d1d1d"
     bordercolor="#666666"
     borderopacity="1.0"
     inkscape:pageopacity="1"
     inkscape:pageshadow="2"
     inkscape:zoom="1"
     inkscape:cx="280.65424"
     inkscape:cy="208.15714"
     inkscape:document-units="mm"
     inkscape:current-layer="layer1"
     inkscape:document-rotation="0"
     showgrid="true"
     inkscape:pagecheckerboard="false"
     showguides="true"
     inkscape:guide-bbox="true"
     inkscape:snap-bbox="false"
     inkscape:snap-grids="true"
     inkscape:window-width="1575"
     inkscape:window-height="924"
     inkscape:window-x="43"
     inkscape:window-y="23"
     inkscape:window-maximized="0"
     inkscape:object-nodes="false">
    <inkscape:grid
       originy="-18.547512"
       originx="-13.493754"
       type="xygrid"
       id="grid833" />
    <sodipodi:guide
       position="55.298252,-17.991139"
       orientation="-1,0"
       id="guide835"
       inkscape:label=""
       inkscape:locked="false"
       inkscape:color="rgb(245,121,0)" />
    <sodipodi:guide
       position="31.485419,-17.991139"
       orientation="-1,0"
       id="guide839"
       inkscape:label=""
       inkscape:locked="false"
       inkscape:color="rgb(245,121,0)" />
    <sodipodi:guide
       position="79.110417,11.113026"
       orientation="-1,0"
       id="guide843"
       inkscape:label=""
       inkscape:locked="false"
       inkscape:color="rgb(245,121,0)" />
    <sodipodi:guide
       position="102.92292,8.4671925"
       orientation="-1,0"
       id="guide847"
       inkscape:label=""
       inkscape:locked="false"
       inkscape:color="rgb(245,121,0)" />
    <sodipodi:guide
       position="100.27708,13.758859"
       orientation="-1,0"
       id="guide849"
       inkscape:label=""
       inkscape:locked="false"
       inkscape:color="rgb(245,121,0)" />
    <sodipodi:guide
       position="10.31875,56.09169"
       orientation="0,1"
       id="guide851"
       inkscape:label=""
       inkscape:locked="false"
       inkscape:color="rgb(245,121,0)" />
    <sodipodi:guide
       position="10.31875,42.86269"
       orientation="0,1"
       id="guide853"
       inkscape:label=""
       inkscape:locked="false"
       inkscape:color="rgb(245,121,0)" />
    <sodipodi:guide
       position="8.2020835,21.431689"
       orientation="0,1"
       id="guide855"
       inkscape:label=""
       inkscape:locked="false"
       inkscape:color="rgb(245,121,0)" />
    <sodipodi:guide
       position="158.48543,11.113026"
       orientation="0,1"
       id="guide857"
       inkscape:label=""
       inkscape:locked="false"
       inkscape:color="rgb(245,121,0)" />
    <sodipodi:guide
       position="76.464583,8.4671925"
       orientation="-1,0"
       id="guide26703"
       inkscape:label=""
       inkscape:locked="false"
       inkscape:color="rgb(245,121,0)" />
    <sodipodi:guide
       position="52.652252,-7.4078092"
       orientation="-1,0"
       id="guide26705"
       inkscape:label=""
       inkscape:locked="false"
       inkscape:color="rgb(245,121,0)" />
    <sodipodi:guide
       inkscape:color="rgb(245,121,0)"
       inkscape:locked="false"
       inkscape:label=""
       position="163.77701,16.404693"
       orientation="-1,0"
       id="guide26707" />
    <sodipodi:guide
       position="5.0270834,66.675521"
       orientation="0,-1"
       id="guide26709" />
    <sodipodi:guide
       position="145.25626,0.52969284"
       orientation="0,-1"
       id="guide26711" />
    <sodipodi:guide
       position="-0.26458255,26.988019"
       orientation="-1,0"
       id="guide26720"
       inkscape:label=""
       inkscape:locked="false"
       inkscape:color="rgb(0,0,255)" />
    <sodipodi:guide
       position="195.52709,-2.1161411"
       orientation="1,0"
       id="guide26759" />
    <sodipodi:guide
       position="42.068751,71.9672"
       orientation="0,-1"
       id="guide26784" />
    <sodipodi:guide
       inkscape:color="rgb(245,121,0)"
       inkscape:locked="false"
       inkscape:label=""
       id="guide86870"
       orientation="-1,0"
       position="116.152,-12.699475" />
    <sodipodi:guide
       inkscape:color="rgb(245,121,0)"
       inkscape:locked="false"
       inkscape:label=""
       id="guide86872"
       orientation="-1,0"
       position="118.798,-17.991142" />
    <sodipodi:guide
       inkscape:color="rgb(245,121,0)"
       inkscape:locked="false"
       inkscape:label=""
       id="guide86885"
       orientation="-1,0"
       position="139.96501,-17.991142" />
    <sodipodi:guide
       inkscape:color="rgb(245,121,0)"
       inkscape:locked="false"
       inkscape:label=""
       id="guide86887"
       orientation="-1,0"
       position="142.61001,-7.407808" />
  </sodipodi:namedview>
  <metadata
     id="metadata5">
    <rdf:RDF>
      <cc:Work
         rdf:about="">
        <dc:format>image/svg+xml</dc:format>
        <dc:type
           rdf:resource="http://purl.org/dc/dcmitype/StillImage" />
        <dc:title></dc:title>
      </cc:Work>
    </rdf:RDF>
  </metadata>
  <g
     transform="translate(-13.49375,-18.547512)"
     inkscape:label="Layer 1"
     inkscape:groupmode="layer"
     id="layer1">
    <path
       id="rect861"
       style="fill:#d6e8fd;fill-opacity:1;stroke-width:0.93345;stroke-linecap:round;stroke-linejoin:round;stroke-opacity:0.690196;stop-color:#000000"
       d="m 55.827082,53.181249 c -5.863166,0 -10.583333,4.720164 -10.583333,10.583333 0,5.863169 4.720167,10.583333 10.583333,10.583333 5.863167,0 10.583334,-4.720164 10.583334,-10.583333 0,-5.863169 -4.720167,-10.583333 -10.583334,-10.583333 z m 0,5.291667 c 2.931584,0 5.291667,2.360083 5.291667,5.291666 0,2.931583 -2.360083,5.291667 -5.291667,5.291667 -2.931583,0 -5.291666,-2.360084 -5.291666,-5.291667 0,-2.931583 2.360083,-5.291666 5.291666,-5.291666 z"
       inkscape:connector-curvature="0" />
    <rect
       style="fill:#d6e8fd;fill-opacity:1;stroke-width:0.984558;stroke-linecap:round;stroke-linejoin:round;stroke-opacity:0.690196;stop-color:#000000"
       id="rect863"
       width="5.2916675"
       height="23.547918"
       x="45.243748"
       y="61.118752"
       ry="2.3547921" />
    <path
       id="rect879"
       style="fill:#d7e8fd;fill-opacity:1;stroke-width:0.93345;stroke-linecap:round;stroke-linejoin:round;stroke-opacity:0.690196;stop-color:#000000"
       d="m 103.05522,53.048958 c -5.863175,0 -10.583341,4.720166 -10.583341,10.583333 0,5.863169 4.720166,10.583333 10.583341,10.583333 5.8632,0 10.58336,-4.720164 10.58336,-10.583333 0,-5.863167 -4.72016,-10.583333 -10.58336,-10.583333 z m 0,5.291666 c 2.93161,0 5.2917,2.360084 5.2917,5.291667 0,2.931583 -2.36009,5.291666 -5.2917,5.291666 -2.93159,0 -5.291675,-2.360083 -5.291675,-5.291666 0,-2.931583 2.360085,-5.291667 5.291675,-5.291667 z"
       inkscape:connector-curvature="0" />
    <g
       style="fill:#d7e8fd;fill-opacity:1"
       id="g159118">
      <path
         id="rect26713"
         style="fill:#d7e8fd;fill-opacity:1;stroke-width:9.74691;stroke-linecap:round;stroke-linejoin:round;stroke-opacity:0.690196;stop-color:#000000"
         d="M 171.50586,90.837891 C 104.80216,91.647315 51,168.37738 51,236 c 0,69.804 56.196,126 126,126 h 346 c 46.81663,0 252.10841,10e-4 271.2168,0.002 19.1084,10e-4 25.78321,-12.002 26.4375,-25 C 809.99999,350 580.00001,350 513,350 H 186 C 122.29,350 71,298.71 71,235 71,171.29 123.42819,96.806027 187,101 l 42,0.33008 c 0,0 -33.63899,-9.304433 -37,-9.462892 -3.36101,-0.158459 -14.1619,-1.097176 -20.49414,-1.029297 z M 618.75,200.00195 c 0.0922,0.17104 0.17853,0.34419 0.26953,0.51563 2.08491,-0.33271 4.22186,-0.51153 6.40235,-0.51563 z"
         transform="scale(0.26458333)"
         inkscape:connector-curvature="0"
         sodipodi:nodetypes="cssszcssscczccccc" />
      <rect
         style="fill:#d7e8fd;fill-opacity:1;stroke-width:0.502069;stroke-linecap:round;stroke-linejoin:round;stroke-opacity:0.690196;stop-color:#000000"
         id="rect26782"
         width="7.5899143"
         height="7.5895815"
         x="57.01973"
         y="18.547512"
         ry="3.7947907" />
    </g>
    <path
       id="rect55947"
       style="fill:#d6e8fd;fill-opacity:1;stroke-width:0.700087;stroke-linecap:round;stroke-linejoin:round;stroke-opacity:0.690196;stop-color:#000000"
       d="m 161.39587,53.048776 c -1.09935,0 -2.60709,0.52405 -3.30729,1.12448 -0.7002,0.60042 -0.64047,0.58032 -1.19063,1.32291 -0.58435,0.78876 -0.79375,1.34549 -0.79375,2.39107 v 3.68505 c 0,1.17787 0.65627,2.05982 0.99219,2.52284 0.33593,0.46302 1.03755,0.64059 1.52497,0.93431 0.48742,0.29372 1.3034,0.32246 2.11305,0.45475 0,0 8.98519,0.007 10.05417,0 1.06898,-0.008 2.59253,0.58828 2.57969,1.59732 -0.0128,1.00904 0.0532,0.0269 0,1.43609 -0.0532,1.40919 -1.55731,1.75832 -2.64584,1.72909 -1.08852,-0.0292 -12.5677,0.0661 -12.5677,0.0661 -1.09935,0 -1.98438,0.88504 -1.98438,1.98438 0,1.09934 0.88503,1.98437 1.98438,1.98437 h 14.81666 c 1.09935,0 1.6709,-0.39332 2.24896,-0.85989 0.57806,-0.46657 0.98218,-1.1498 1.25677,-1.65365 0.27459,-0.50385 0.70568,-1.21288 0.72761,-2.39055 l 0.0661,-3.55275 c -0.0111,-1.31254 -0.53438,-1.93441 -0.86817,-2.29082 -0.33378,-0.35642 -1.05006,-1.17615 -1.71152,-1.42317 -0.66146,-0.24702 -2.34024,-0.46302 -3.175,-0.52917 0,0 -8.20051,-0.0305 -9.32656,0 -1.12606,0.0305 -2.11299,-0.8459 -2.05046,-1.79524 0.0625,-0.94934 -0.0342,-0.0779 0,-0.97306 0.0342,-0.89514 0.90641,-1.85836 2.24895,-1.92805 1.34255,-0.0697 10.25261,0.13229 10.25261,0.13229 1.09934,0 1.98437,-0.88503 1.98437,-1.98437 0,-1.09935 -0.88503,-1.98438 -1.98437,-1.98438 z"
       inkscape:connector-curvature="0"
       sodipodi:nodetypes="ssssszzszzzzsssszzsczzszzzzcsss" />
    <g
       transform="translate(71.172918,0.26458433)"
       id="g85601">
      <path
         id="path54686"
         style="fill:#d7e8fd;fill-opacity:1;stroke-width:0.971328;stroke-linecap:round;stroke-linejoin:round;stroke-opacity:0.690196;stop-color:#000000"
         d="m 47.790364,39.555208 c -1.410825,0 -2.546615,1.135789 -2.546615,2.546614 V 66.11276 c 0,4.252092 4.755661,7.686764 7.9375,7.838281 l 2.778125,0.132291 c 1.46413,0.06972 2.513542,-1.444627 2.513542,-2.910416 0,-1.465789 -2.38125,-2.38125 -2.38125,-2.38125 L 53.90317,68.659374 c -1.583142,-0.0957 -3.479411,-1.885968 -3.460255,-3.534669 0.03404,-2.929676 0.357084,-16.105543 0.357084,-23.022883 0,-1.410825 -1.13579,-2.546614 -2.546614,-2.546614 z"
         inkscape:connector-curvature="0"
         sodipodi:nodetypes="sssssscsscss" />
      <rect
         ry="1.9513035"
         y="52.916668"
         x="45.508324"
         height="3.9026067"
         width="9.7895842"
         id="rect55947-9"
         style="fill:#d6e8fd;fill-opacity:1;stroke-width:0.545167;stroke-linecap:round;stroke-linejoin:round;stroke-opacity:0.690196;stop-color:#000000" />
    </g>
    <rect
       ry="3.4395838"
       y="39.81979"
       x="68.830406"
       height="34.395836"
       width="5.2916675"
       id="rect86866"
       style="fill:#d6e8fd;fill-opacity:1;stroke-width:1.18992;stroke-linecap:round;stroke-linejoin:round;stroke-opacity:0.690196;stop-color:#000000" />
    <path
       sodipodi:nodetypes="sccscccsss"
       inkscape:connector-curvature="0"
       d="m 79.383828,53.181057 c -5.785887,0 -10.443821,4.720167 -10.443821,10.583333 2.49749,-0.26439 5.325154,4.857008 5.221911,0 0,-2.931583 2.328961,-5.291666 5.22191,-5.291666 2.892964,0 5.288056,2.0955 5.288056,5.027083 -0.0052,2.646026 -0.0052,5.29186 0.167552,6.571421 1.150144,-0.08894 3.795978,0.04335 5.107914,0.02921 0.01084,-1.437174 -0.05356,-4.148803 -0.05356,-6.468345 0,-5.863166 -4.724056,-10.451041 -10.509966,-10.451041 z"
       style="fill:#d7e8fd;fill-opacity:1;stroke-width:0.927277;stroke-linecap:round;stroke-linejoin:round;stroke-opacity:0.690196;stop-color:#000000"
       id="path86868" />
    <path
       inkscape:connector-curvature="0"
       d="m 142.87501,52.916666 c -5.86317,0 -10.58334,4.720166 -10.58334,10.583333 0,5.863169 4.72017,10.583333 10.58334,10.583333 5.8632,0 10.58336,-4.720164 10.58336,-10.583333 0,-5.863167 -4.72016,-10.583333 -10.58336,-10.583333 z m 0,5.291666 c 2.93161,0 5.2917,2.360084 5.2917,5.291667 0,2.931583 -2.36009,5.291666 -5.2917,5.291666 -2.93159,0 -5.29167,-2.360083 -5.29167,-5.291666 0,-2.931583 2.36008,-5.291667 5.29167,-5.291667 z"
       style="fill:#d7e8fd;fill-opacity:1;stroke-width:0.93345;stroke-linecap:round;stroke-linejoin:round;stroke-opacity:0.690196;stop-color:#000000"
       id="path86883" />
    <rect
       style="fill:#d6e8fd;fill-opacity:1;stroke-width:0.703383;stroke-linecap:round;stroke-linejoin:round;stroke-opacity:0.690196;stop-color:#000000"
       id="rect86904"
       width="5.2255216"
       height="12.170835"
       x="84.732811"
       y="62.177078"
       ry="3.1612558" />
  </g>
</svg>
